<?xml version="1.0" encoding="utf-8" standalone="no"?>
<!DOCTYPE svg PUBLIC "-//W3C//DTD SVG 1.1//EN"
  "http://www.w3.org/Graphics/SVG/1.1/DTD/svg11.dtd">
<svg xmlns:xlink="http://www.w3.org/1999/xlink" width="1152pt" height="648pt" viewBox="0 0 1152 648" xmlns="http://www.w3.org/2000/svg" version="1.1">
 <metadata>
  <rdf:RDF xmlns:dc="http://purl.org/dc/elements/1.1/" xmlns:cc="http://creativecommons.org/ns#" xmlns:rdf="http://www.w3.org/1999/02/22-rdf-syntax-ns#">
   <cc:Work>
    <dc:type rdf:resource="http://purl.org/dc/dcmitype/StillImage"/>
    <dc:date>2023-10-01T21:08:07.640782</dc:date>
    <dc:format>image/svg+xml</dc:format>
    <dc:creator>
     <cc:Agent>
      <dc:title>Matplotlib v3.8.0, https://matplotlib.org/</dc:title>
     </cc:Agent>
    </dc:creator>
   </cc:Work>
  </rdf:RDF>
 </metadata>
 <defs>
  <style type="text/css">*{stroke-linejoin: round; stroke-linecap: butt}</style>
 </defs>
 <g id="figure_1">
  <g id="patch_1">
   <path d="M 0 648 
L 1152 648 
L 1152 0 
L 0 0 
z
" style="fill: #ffffff"/>
  </g>
  <g id="axes_1">
   <g id="patch_2">
    <path d="M 191.38125 515.903573 
L 1026 515.903573 
L 1026 99.158437 
L 191.38125 99.158437 
z
" style="fill: #ffffff"/>
   </g>
   <g id="matplotlib.axis_1">
    <g id="xtick_1">
     <g id="line2d_1">
      <defs>
       <path id="m29e18cdae6" d="M 0 0 
L 0 3.5 
" style="stroke: #000000; stroke-width: 0.8"/>
      </defs>
      <g>
       <use xlink:href="#m29e18cdae6" x="984.302901" y="515.903573" style="stroke: #000000; stroke-width: 0.8"/>
      </g>
     </g>
     <g id="text_1">
      <!-- 10000 -->
      <g transform="translate(971.104311 528.276479) rotate(-315) scale(0.1 -0.1)">
       <defs>
        <path id="DejaVuSans-31" d="M 794 531 
L 1825 531 
L 1825 4091 
L 703 3866 
L 703 4441 
L 1819 4666 
L 2450 4666 
L 2450 531 
L 3481 531 
L 3481 0 
L 794 0 
L 794 531 
z
" transform="scale(0.015625)"/>
        <path id="DejaVuSans-30" d="M 2034 4250 
Q 1547 4250 1301 3770 
Q 1056 3291 1056 2328 
Q 1056 1369 1301 889 
Q 1547 409 2034 409 
Q 2525 409 2770 889 
Q 3016 1369 3016 2328 
Q 3016 3291 2770 3770 
Q 2525 4250 2034 4250 
z
M 2034 4750 
Q 2819 4750 3233 4129 
Q 3647 3509 3647 2328 
Q 3647 1150 3233 529 
Q 2819 -91 2034 -91 
Q 1250 -91 836 529 
Q 422 1150 422 2328 
Q 422 3509 836 4129 
Q 1250 4750 2034 4750 
z
" transform="scale(0.015625)"/>
       </defs>
       <use xlink:href="#DejaVuSans-31"/>
       <use xlink:href="#DejaVuSans-30" x="63.623047"/>
       <use xlink:href="#DejaVuSans-30" x="127.246094"/>
       <use xlink:href="#DejaVuSans-30" x="190.869141"/>
       <use xlink:href="#DejaVuSans-30" x="254.492188"/>
      </g>
     </g>
    </g>
    <g id="xtick_2">
     <g id="line2d_2">
      <g>
       <use xlink:href="#m29e18cdae6" x="307.524025" y="515.903573" style="stroke: #000000; stroke-width: 0.8"/>
      </g>
     </g>
     <g id="text_2">
      <!-- 1000 -->
      <g transform="translate(296.574918 528.276479) rotate(-315) scale(0.1 -0.1)">
       <use xlink:href="#DejaVuSans-31"/>
       <use xlink:href="#DejaVuSans-30" x="63.623047"/>
       <use xlink:href="#DejaVuSans-30" x="127.246094"/>
       <use xlink:href="#DejaVuSans-30" x="190.869141"/>
      </g>
     </g>
    </g>
    <g id="xtick_3">
     <g id="line2d_3">
      <g>
       <use xlink:href="#m29e18cdae6" x="239.846137" y="515.903573" style="stroke: #000000; stroke-width: 0.8"/>
      </g>
     </g>
     <g id="text_3">
      <!-- 100 -->
      <g transform="translate(231.146514 528.276479) rotate(-315) scale(0.1 -0.1)">
       <use xlink:href="#DejaVuSans-31"/>
       <use xlink:href="#DejaVuSans-30" x="63.623047"/>
       <use xlink:href="#DejaVuSans-30" x="127.246094"/>
      </g>
     </g>
    </g>
    <g id="xtick_4">
     <g id="line2d_4">
      <g>
       <use xlink:href="#m29e18cdae6" x="233.078349" y="515.903573" style="stroke: #000000; stroke-width: 0.8"/>
      </g>
     </g>
     <g id="text_4">
      <!-- 10 -->
      <g transform="translate(226.628209 528.276479) rotate(-315) scale(0.1 -0.1)">
       <use xlink:href="#DejaVuSans-31"/>
       <use xlink:href="#DejaVuSans-30" x="63.623047"/>
      </g>
     </g>
    </g>
    <g id="xtick_5">
     <g id="line2d_5">
      <g>
       <use xlink:href="#m29e18cdae6" x="345.122851" y="515.903573" style="stroke: #000000; stroke-width: 0.8"/>
      </g>
     </g>
     <g id="text_5">
      <!-- 1500 -->
      <g transform="translate(334.173745 528.276479) rotate(-315) scale(0.1 -0.1)">
       <defs>
        <path id="DejaVuSans-35" d="M 691 4666 
L 3169 4666 
L 3169 4134 
L 1269 4134 
L 1269 2991 
Q 1406 3038 1543 3061 
Q 1681 3084 1819 3084 
Q 2600 3084 3056 2656 
Q 3513 2228 3513 1497 
Q 3513 744 3044 326 
Q 2575 -91 1722 -91 
Q 1428 -91 1123 -41 
Q 819 9 494 109 
L 494 744 
Q 775 591 1075 516 
Q 1375 441 1709 441 
Q 2250 441 2565 725 
Q 2881 1009 2881 1497 
Q 2881 1984 2565 2268 
Q 2250 2553 1709 2553 
Q 1456 2553 1204 2497 
Q 953 2441 691 2322 
L 691 4666 
z
" transform="scale(0.015625)"/>
       </defs>
       <use xlink:href="#DejaVuSans-31"/>
       <use xlink:href="#DejaVuSans-35" x="63.623047"/>
       <use xlink:href="#DejaVuSans-30" x="127.246094"/>
       <use xlink:href="#DejaVuSans-30" x="190.869141"/>
      </g>
     </g>
    </g>
    <g id="xtick_6">
     <g id="line2d_6">
      <g>
       <use xlink:href="#m29e18cdae6" x="382.721678" y="515.903573" style="stroke: #000000; stroke-width: 0.8"/>
      </g>
     </g>
     <g id="text_6">
      <!-- 2000 -->
      <g transform="translate(371.772571 528.276479) rotate(-315) scale(0.1 -0.1)">
       <defs>
        <path id="DejaVuSans-32" d="M 1228 531 
L 3431 531 
L 3431 0 
L 469 0 
L 469 531 
Q 828 903 1448 1529 
Q 2069 2156 2228 2338 
Q 2531 2678 2651 2914 
Q 2772 3150 2772 3378 
Q 2772 3750 2511 3984 
Q 2250 4219 1831 4219 
Q 1534 4219 1204 4116 
Q 875 4013 500 3803 
L 500 4441 
Q 881 4594 1212 4672 
Q 1544 4750 1819 4750 
Q 2544 4750 2975 4387 
Q 3406 4025 3406 3419 
Q 3406 3131 3298 2873 
Q 3191 2616 2906 2266 
Q 2828 2175 2409 1742 
Q 1991 1309 1228 531 
z
" transform="scale(0.015625)"/>
       </defs>
       <use xlink:href="#DejaVuSans-32"/>
       <use xlink:href="#DejaVuSans-30" x="63.623047"/>
       <use xlink:href="#DejaVuSans-30" x="127.246094"/>
       <use xlink:href="#DejaVuSans-30" x="190.869141"/>
      </g>
     </g>
    </g>
    <g id="xtick_7">
     <g id="line2d_7">
      <g>
       <use xlink:href="#m29e18cdae6" x="420.320504" y="515.903573" style="stroke: #000000; stroke-width: 0.8"/>
      </g>
     </g>
     <g id="text_7">
      <!-- 2500 -->
      <g transform="translate(409.371398 528.276479) rotate(-315) scale(0.1 -0.1)">
       <use xlink:href="#DejaVuSans-32"/>
       <use xlink:href="#DejaVuSans-35" x="63.623047"/>
       <use xlink:href="#DejaVuSans-30" x="127.246094"/>
       <use xlink:href="#DejaVuSans-30" x="190.869141"/>
      </g>
     </g>
    </g>
    <g id="xtick_8">
     <g id="line2d_8">
      <g>
       <use xlink:href="#m29e18cdae6" x="457.919331" y="515.903573" style="stroke: #000000; stroke-width: 0.8"/>
      </g>
     </g>
     <g id="text_8">
      <!-- 3000 -->
      <g transform="translate(446.970224 528.276479) rotate(-315) scale(0.1 -0.1)">
       <defs>
        <path id="DejaVuSans-33" d="M 2597 2516 
Q 3050 2419 3304 2112 
Q 3559 1806 3559 1356 
Q 3559 666 3084 287 
Q 2609 -91 1734 -91 
Q 1441 -91 1130 -33 
Q 819 25 488 141 
L 488 750 
Q 750 597 1062 519 
Q 1375 441 1716 441 
Q 2309 441 2620 675 
Q 2931 909 2931 1356 
Q 2931 1769 2642 2001 
Q 2353 2234 1838 2234 
L 1294 2234 
L 1294 2753 
L 1863 2753 
Q 2328 2753 2575 2939 
Q 2822 3125 2822 3475 
Q 2822 3834 2567 4026 
Q 2313 4219 1838 4219 
Q 1578 4219 1281 4162 
Q 984 4106 628 3988 
L 628 4550 
Q 988 4650 1302 4700 
Q 1616 4750 1894 4750 
Q 2613 4750 3031 4423 
Q 3450 4097 3450 3541 
Q 3450 3153 3228 2886 
Q 3006 2619 2597 2516 
z
" transform="scale(0.015625)"/>
       </defs>
       <use xlink:href="#DejaVuSans-33"/>
       <use xlink:href="#DejaVuSans-30" x="63.623047"/>
       <use xlink:href="#DejaVuSans-30" x="127.246094"/>
       <use xlink:href="#DejaVuSans-30" x="190.869141"/>
      </g>
     </g>
    </g>
    <g id="xtick_9">
     <g id="line2d_9">
      <g>
       <use xlink:href="#m29e18cdae6" x="495.518157" y="515.903573" style="stroke: #000000; stroke-width: 0.8"/>
      </g>
     </g>
     <g id="text_9">
      <!-- 3500 -->
      <g transform="translate(484.569051 528.276479) rotate(-315) scale(0.1 -0.1)">
       <use xlink:href="#DejaVuSans-33"/>
       <use xlink:href="#DejaVuSans-35" x="63.623047"/>
       <use xlink:href="#DejaVuSans-30" x="127.246094"/>
       <use xlink:href="#DejaVuSans-30" x="190.869141"/>
      </g>
     </g>
    </g>
    <g id="xtick_10">
     <g id="line2d_10">
      <g>
       <use xlink:href="#m29e18cdae6" x="533.116984" y="515.903573" style="stroke: #000000; stroke-width: 0.8"/>
      </g>
     </g>
     <g id="text_10">
      <!-- 4000 -->
      <g transform="translate(522.167877 528.276479) rotate(-315) scale(0.1 -0.1)">
       <defs>
        <path id="DejaVuSans-34" d="M 2419 4116 
L 825 1625 
L 2419 1625 
L 2419 4116 
z
M 2253 4666 
L 3047 4666 
L 3047 1625 
L 3713 1625 
L 3713 1100 
L 3047 1100 
L 3047 0 
L 2419 0 
L 2419 1100 
L 313 1100 
L 313 1709 
L 2253 4666 
z
" transform="scale(0.015625)"/>
       </defs>
       <use xlink:href="#DejaVuSans-34"/>
       <use xlink:href="#DejaVuSans-30" x="63.623047"/>
       <use xlink:href="#DejaVuSans-30" x="127.246094"/>
       <use xlink:href="#DejaVuSans-30" x="190.869141"/>
      </g>
     </g>
    </g>
    <g id="xtick_11">
     <g id="line2d_11">
      <g>
       <use xlink:href="#m29e18cdae6" x="570.71581" y="515.903573" style="stroke: #000000; stroke-width: 0.8"/>
      </g>
     </g>
     <g id="text_11">
      <!-- 4500 -->
      <g transform="translate(559.766704 528.276479) rotate(-315) scale(0.1 -0.1)">
       <use xlink:href="#DejaVuSans-34"/>
       <use xlink:href="#DejaVuSans-35" x="63.623047"/>
       <use xlink:href="#DejaVuSans-30" x="127.246094"/>
       <use xlink:href="#DejaVuSans-30" x="190.869141"/>
      </g>
     </g>
    </g>
    <g id="xtick_12">
     <g id="line2d_12">
      <g>
       <use xlink:href="#m29e18cdae6" x="608.314637" y="515.903573" style="stroke: #000000; stroke-width: 0.8"/>
      </g>
     </g>
     <g id="text_12">
      <!-- 5000 -->
      <g transform="translate(597.36553 528.276479) rotate(-315) scale(0.1 -0.1)">
       <use xlink:href="#DejaVuSans-35"/>
       <use xlink:href="#DejaVuSans-30" x="63.623047"/>
       <use xlink:href="#DejaVuSans-30" x="127.246094"/>
       <use xlink:href="#DejaVuSans-30" x="190.869141"/>
      </g>
     </g>
    </g>
    <g id="xtick_13">
     <g id="line2d_13">
      <g>
       <use xlink:href="#m29e18cdae6" x="269.925198" y="515.903573" style="stroke: #000000; stroke-width: 0.8"/>
      </g>
     </g>
     <g id="text_13">
      <!-- 500 -->
      <g transform="translate(261.225575 528.276479) rotate(-315) scale(0.1 -0.1)">
       <use xlink:href="#DejaVuSans-35"/>
       <use xlink:href="#DejaVuSans-30" x="63.623047"/>
       <use xlink:href="#DejaVuSans-30" x="127.246094"/>
      </g>
     </g>
    </g>
    <g id="xtick_14">
     <g id="line2d_14">
      <g>
       <use xlink:href="#m29e18cdae6" x="645.913463" y="515.903573" style="stroke: #000000; stroke-width: 0.8"/>
      </g>
     </g>
     <g id="text_14">
      <!-- 5500 -->
      <g transform="translate(634.964357 528.276479) rotate(-315) scale(0.1 -0.1)">
       <use xlink:href="#DejaVuSans-35"/>
       <use xlink:href="#DejaVuSans-35" x="63.623047"/>
       <use xlink:href="#DejaVuSans-30" x="127.246094"/>
       <use xlink:href="#DejaVuSans-30" x="190.869141"/>
      </g>
     </g>
    </g>
    <g id="xtick_15">
     <g id="line2d_15">
      <g>
       <use xlink:href="#m29e18cdae6" x="683.51229" y="515.903573" style="stroke: #000000; stroke-width: 0.8"/>
      </g>
     </g>
     <g id="text_15">
      <!-- 6000 -->
      <g transform="translate(672.563183 528.276479) rotate(-315) scale(0.1 -0.1)">
       <defs>
        <path id="DejaVuSans-36" d="M 2113 2584 
Q 1688 2584 1439 2293 
Q 1191 2003 1191 1497 
Q 1191 994 1439 701 
Q 1688 409 2113 409 
Q 2538 409 2786 701 
Q 3034 994 3034 1497 
Q 3034 2003 2786 2293 
Q 2538 2584 2113 2584 
z
M 3366 4563 
L 3366 3988 
Q 3128 4100 2886 4159 
Q 2644 4219 2406 4219 
Q 1781 4219 1451 3797 
Q 1122 3375 1075 2522 
Q 1259 2794 1537 2939 
Q 1816 3084 2150 3084 
Q 2853 3084 3261 2657 
Q 3669 2231 3669 1497 
Q 3669 778 3244 343 
Q 2819 -91 2113 -91 
Q 1303 -91 875 529 
Q 447 1150 447 2328 
Q 447 3434 972 4092 
Q 1497 4750 2381 4750 
Q 2619 4750 2861 4703 
Q 3103 4656 3366 4563 
z
" transform="scale(0.015625)"/>
       </defs>
       <use xlink:href="#DejaVuSans-36"/>
       <use xlink:href="#DejaVuSans-30" x="63.623047"/>
       <use xlink:href="#DejaVuSans-30" x="127.246094"/>
       <use xlink:href="#DejaVuSans-30" x="190.869141"/>
      </g>
     </g>
    </g>
    <g id="xtick_16">
     <g id="line2d_16">
      <g>
       <use xlink:href="#m29e18cdae6" x="721.111116" y="515.903573" style="stroke: #000000; stroke-width: 0.8"/>
      </g>
     </g>
     <g id="text_16">
      <!-- 6500 -->
      <g transform="translate(710.16201 528.276479) rotate(-315) scale(0.1 -0.1)">
       <use xlink:href="#DejaVuSans-36"/>
       <use xlink:href="#DejaVuSans-35" x="63.623047"/>
       <use xlink:href="#DejaVuSans-30" x="127.246094"/>
       <use xlink:href="#DejaVuSans-30" x="190.869141"/>
      </g>
     </g>
    </g>
    <g id="xtick_17">
     <g id="line2d_17">
      <g>
       <use xlink:href="#m29e18cdae6" x="758.709943" y="515.903573" style="stroke: #000000; stroke-width: 0.8"/>
      </g>
     </g>
     <g id="text_17">
      <!-- 7000 -->
      <g transform="translate(747.760836 528.276479) rotate(-315) scale(0.1 -0.1)">
       <defs>
        <path id="DejaVuSans-37" d="M 525 4666 
L 3525 4666 
L 3525 4397 
L 1831 0 
L 1172 0 
L 2766 4134 
L 525 4134 
L 525 4666 
z
" transform="scale(0.015625)"/>
       </defs>
       <use xlink:href="#DejaVuSans-37"/>
       <use xlink:href="#DejaVuSans-30" x="63.623047"/>
       <use xlink:href="#DejaVuSans-30" x="127.246094"/>
       <use xlink:href="#DejaVuSans-30" x="190.869141"/>
      </g>
     </g>
    </g>
    <g id="xtick_18">
     <g id="line2d_18">
      <g>
       <use xlink:href="#m29e18cdae6" x="796.308769" y="515.903573" style="stroke: #000000; stroke-width: 0.8"/>
      </g>
     </g>
     <g id="text_18">
      <!-- 7500 -->
      <g transform="translate(785.359663 528.276479) rotate(-315) scale(0.1 -0.1)">
       <use xlink:href="#DejaVuSans-37"/>
       <use xlink:href="#DejaVuSans-35" x="63.623047"/>
       <use xlink:href="#DejaVuSans-30" x="127.246094"/>
       <use xlink:href="#DejaVuSans-30" x="190.869141"/>
      </g>
     </g>
    </g>
    <g id="xtick_19">
     <g id="line2d_19">
      <g>
       <use xlink:href="#m29e18cdae6" x="833.907596" y="515.903573" style="stroke: #000000; stroke-width: 0.8"/>
      </g>
     </g>
     <g id="text_19">
      <!-- 8000 -->
      <g transform="translate(822.958489 528.276479) rotate(-315) scale(0.1 -0.1)">
       <defs>
        <path id="DejaVuSans-38" d="M 2034 2216 
Q 1584 2216 1326 1975 
Q 1069 1734 1069 1313 
Q 1069 891 1326 650 
Q 1584 409 2034 409 
Q 2484 409 2743 651 
Q 3003 894 3003 1313 
Q 3003 1734 2745 1975 
Q 2488 2216 2034 2216 
z
M 1403 2484 
Q 997 2584 770 2862 
Q 544 3141 544 3541 
Q 544 4100 942 4425 
Q 1341 4750 2034 4750 
Q 2731 4750 3128 4425 
Q 3525 4100 3525 3541 
Q 3525 3141 3298 2862 
Q 3072 2584 2669 2484 
Q 3125 2378 3379 2068 
Q 3634 1759 3634 1313 
Q 3634 634 3220 271 
Q 2806 -91 2034 -91 
Q 1263 -91 848 271 
Q 434 634 434 1313 
Q 434 1759 690 2068 
Q 947 2378 1403 2484 
z
M 1172 3481 
Q 1172 3119 1398 2916 
Q 1625 2713 2034 2713 
Q 2441 2713 2670 2916 
Q 2900 3119 2900 3481 
Q 2900 3844 2670 4047 
Q 2441 4250 2034 4250 
Q 1625 4250 1398 4047 
Q 1172 3844 1172 3481 
z
" transform="scale(0.015625)"/>
       </defs>
       <use xlink:href="#DejaVuSans-38"/>
       <use xlink:href="#DejaVuSans-30" x="63.623047"/>
       <use xlink:href="#DejaVuSans-30" x="127.246094"/>
       <use xlink:href="#DejaVuSans-30" x="190.869141"/>
      </g>
     </g>
    </g>
    <g id="xtick_20">
     <g id="line2d_20">
      <g>
       <use xlink:href="#m29e18cdae6" x="871.506422" y="515.903573" style="stroke: #000000; stroke-width: 0.8"/>
      </g>
     </g>
     <g id="text_20">
      <!-- 8500 -->
      <g transform="translate(860.557315 528.276479) rotate(-315) scale(0.1 -0.1)">
       <use xlink:href="#DejaVuSans-38"/>
       <use xlink:href="#DejaVuSans-35" x="63.623047"/>
       <use xlink:href="#DejaVuSans-30" x="127.246094"/>
       <use xlink:href="#DejaVuSans-30" x="190.869141"/>
      </g>
     </g>
    </g>
    <g id="xtick_21">
     <g id="line2d_21">
      <g>
       <use xlink:href="#m29e18cdae6" x="909.105249" y="515.903573" style="stroke: #000000; stroke-width: 0.8"/>
      </g>
     </g>
     <g id="text_21">
      <!-- 9000 -->
      <g transform="translate(898.156142 528.276479) rotate(-315) scale(0.1 -0.1)">
       <defs>
        <path id="DejaVuSans-39" d="M 703 97 
L 703 672 
Q 941 559 1184 500 
Q 1428 441 1663 441 
Q 2288 441 2617 861 
Q 2947 1281 2994 2138 
Q 2813 1869 2534 1725 
Q 2256 1581 1919 1581 
Q 1219 1581 811 2004 
Q 403 2428 403 3163 
Q 403 3881 828 4315 
Q 1253 4750 1959 4750 
Q 2769 4750 3195 4129 
Q 3622 3509 3622 2328 
Q 3622 1225 3098 567 
Q 2575 -91 1691 -91 
Q 1453 -91 1209 -44 
Q 966 3 703 97 
z
M 1959 2075 
Q 2384 2075 2632 2365 
Q 2881 2656 2881 3163 
Q 2881 3666 2632 3958 
Q 2384 4250 1959 4250 
Q 1534 4250 1286 3958 
Q 1038 3666 1038 3163 
Q 1038 2656 1286 2365 
Q 1534 2075 1959 2075 
z
" transform="scale(0.015625)"/>
       </defs>
       <use xlink:href="#DejaVuSans-39"/>
       <use xlink:href="#DejaVuSans-30" x="63.623047"/>
       <use xlink:href="#DejaVuSans-30" x="127.246094"/>
       <use xlink:href="#DejaVuSans-30" x="190.869141"/>
      </g>
     </g>
    </g>
    <g id="xtick_22">
     <g id="line2d_22">
      <g>
       <use xlink:href="#m29e18cdae6" x="946.704075" y="515.903573" style="stroke: #000000; stroke-width: 0.8"/>
      </g>
     </g>
     <g id="text_22">
      <!-- 9500 -->
      <g transform="translate(935.754968 528.276479) rotate(-315) scale(0.1 -0.1)">
       <use xlink:href="#DejaVuSans-39"/>
       <use xlink:href="#DejaVuSans-35" x="63.623047"/>
       <use xlink:href="#DejaVuSans-30" x="127.246094"/>
       <use xlink:href="#DejaVuSans-30" x="190.869141"/>
      </g>
     </g>
    </g>
    <g id="text_23">
     <!-- Количество элементов -->
     <g transform="translate(548.295312 563.840312) scale(0.1 -0.1)">
      <defs>
       <path id="DejaVuSans-41a" d="M 628 4666 
L 1259 4666 
L 1259 2359 
L 3516 4666 
L 4325 4666 
L 2522 2822 
L 4419 0 
L 3731 0 
L 2113 2403 
L 1259 1531 
L 1259 0 
L 628 0 
L 628 4666 
z
" transform="scale(0.015625)"/>
       <path id="DejaVuSans-43e" d="M 1959 3097 
Q 1497 3097 1228 2736 
Q 959 2375 959 1747 
Q 959 1119 1226 758 
Q 1494 397 1959 397 
Q 2419 397 2687 759 
Q 2956 1122 2956 1747 
Q 2956 2369 2687 2733 
Q 2419 3097 1959 3097 
z
M 1959 3584 
Q 2709 3584 3137 3096 
Q 3566 2609 3566 1747 
Q 3566 888 3137 398 
Q 2709 -91 1959 -91 
Q 1206 -91 779 398 
Q 353 888 353 1747 
Q 353 2609 779 3096 
Q 1206 3584 1959 3584 
z
" transform="scale(0.015625)"/>
       <path id="DejaVuSans-43b" d="M 238 0 
L 238 478 
Q 806 566 981 959 
Q 1194 1513 1194 2928 
L 1194 3500 
L 3559 3500 
L 3559 0 
L 2984 0 
L 2984 3041 
L 1769 3041 
L 1769 2694 
Q 1769 1344 1494 738 
Q 1200 91 238 0 
z
" transform="scale(0.015625)"/>
       <path id="DejaVuSans-438" d="M 3578 3500 
L 3578 0 
L 3006 0 
L 3006 2809 
L 1319 0 
L 581 0 
L 581 3500 
L 1153 3500 
L 1153 697 
L 2838 3500 
L 3578 3500 
z
" transform="scale(0.015625)"/>
       <path id="DejaVuSans-447" d="M 2625 0 
L 2625 1472 
L 1553 1472 
Q 1075 1472 756 1769 
Q 469 2038 469 2613 
L 469 3500 
L 1044 3500 
L 1044 2666 
Q 1044 2300 1206 2116 
Q 1372 1931 1697 1931 
L 2625 1931 
L 2625 3500 
L 3200 3500 
L 3200 0 
L 2625 0 
z
" transform="scale(0.015625)"/>
       <path id="DejaVuSans-435" d="M 3597 1894 
L 3597 1613 
L 953 1613 
Q 991 1019 1311 708 
Q 1631 397 2203 397 
Q 2534 397 2845 478 
Q 3156 559 3463 722 
L 3463 178 
Q 3153 47 2828 -22 
Q 2503 -91 2169 -91 
Q 1331 -91 842 396 
Q 353 884 353 1716 
Q 353 2575 817 3079 
Q 1281 3584 2069 3584 
Q 2775 3584 3186 3129 
Q 3597 2675 3597 1894 
z
M 3022 2063 
Q 3016 2534 2758 2815 
Q 2500 3097 2075 3097 
Q 1594 3097 1305 2825 
Q 1016 2553 972 2059 
L 3022 2063 
z
" transform="scale(0.015625)"/>
       <path id="DejaVuSans-441" d="M 3122 3366 
L 3122 2828 
Q 2878 2963 2633 3030 
Q 2388 3097 2138 3097 
Q 1578 3097 1268 2742 
Q 959 2388 959 1747 
Q 959 1106 1268 751 
Q 1578 397 2138 397 
Q 2388 397 2633 464 
Q 2878 531 3122 666 
L 3122 134 
Q 2881 22 2623 -34 
Q 2366 -91 2075 -91 
Q 1284 -91 818 406 
Q 353 903 353 1747 
Q 353 2603 823 3093 
Q 1294 3584 2113 3584 
Q 2378 3584 2631 3529 
Q 2884 3475 3122 3366 
z
" transform="scale(0.015625)"/>
       <path id="DejaVuSans-442" d="M 188 3500 
L 3541 3500 
L 3541 3041 
L 2147 3041 
L 2147 0 
L 1581 0 
L 1581 3041 
L 188 3041 
L 188 3500 
z
" transform="scale(0.015625)"/>
       <path id="DejaVuSans-432" d="M 1156 1613 
L 1156 459 
L 1975 459 
Q 2369 459 2575 607 
Q 2781 756 2781 1038 
Q 2781 1319 2575 1466 
Q 2369 1613 1975 1613 
L 1156 1613 
z
M 1156 3041 
L 1156 2072 
L 1913 2072 
Q 2238 2072 2444 2201 
Q 2650 2331 2650 2563 
Q 2650 2794 2444 2917 
Q 2238 3041 1913 3041 
L 1156 3041 
z
M 581 3500 
L 1950 3500 
Q 2566 3500 2897 3275 
Q 3228 3050 3228 2634 
Q 3228 2313 3059 2123 
Q 2891 1934 2559 1888 
Q 2956 1813 3175 1575 
Q 3394 1338 3394 981 
Q 3394 513 3033 256 
Q 2672 0 2003 0 
L 581 0 
L 581 3500 
z
" transform="scale(0.015625)"/>
       <path id="DejaVuSans-20" transform="scale(0.015625)"/>
       <path id="DejaVuSans-44d" d="M 353 666 
Q 847 397 1338 397 
Q 1797 397 2125 664 
Q 2453 931 2513 1613 
L 738 1613 
L 738 2072 
L 2494 2072 
Q 2456 2400 2207 2748 
Q 1959 3097 1338 3097 
Q 856 3097 353 2828 
L 353 3366 
Q 844 3584 1363 3584 
Q 2181 3584 2651 3089 
Q 3122 2594 3122 1747 
Q 3122 903 2664 406 
Q 2206 -91 1403 -91 
Q 813 -91 353 134 
L 353 666 
z
" transform="scale(0.015625)"/>
       <path id="DejaVuSans-43c" d="M 581 3500 
L 1422 3500 
L 2416 1156 
L 3413 3500 
L 4247 3500 
L 4247 0 
L 3669 0 
L 3669 2950 
L 2703 672 
L 2128 672 
L 1159 2950 
L 1159 0 
L 581 0 
L 581 3500 
z
" transform="scale(0.015625)"/>
       <path id="DejaVuSans-43d" d="M 581 3500 
L 1159 3500 
L 1159 2072 
L 3025 2072 
L 3025 3500 
L 3603 3500 
L 3603 0 
L 3025 0 
L 3025 1613 
L 1159 1613 
L 1159 0 
L 581 0 
L 581 3500 
z
" transform="scale(0.015625)"/>
      </defs>
      <use xlink:href="#DejaVuSans-41a"/>
      <use xlink:href="#DejaVuSans-43e" x="70.996094"/>
      <use xlink:href="#DejaVuSans-43b" x="132.177734"/>
      <use xlink:href="#DejaVuSans-438" x="196.09375"/>
      <use xlink:href="#DejaVuSans-447" x="261.083984"/>
      <use xlink:href="#DejaVuSans-435" x="320.166016"/>
      <use xlink:href="#DejaVuSans-441" x="381.689453"/>
      <use xlink:href="#DejaVuSans-442" x="436.669922"/>
      <use xlink:href="#DejaVuSans-432" x="494.921875"/>
      <use xlink:href="#DejaVuSans-43e" x="553.857422"/>
      <use xlink:href="#DejaVuSans-20" x="615.039062"/>
      <use xlink:href="#DejaVuSans-44d" x="646.826172"/>
      <use xlink:href="#DejaVuSans-43b" x="701.708984"/>
      <use xlink:href="#DejaVuSans-435" x="765.625"/>
      <use xlink:href="#DejaVuSans-43c" x="827.148438"/>
      <use xlink:href="#DejaVuSans-435" x="902.587891"/>
      <use xlink:href="#DejaVuSans-43d" x="964.111328"/>
      <use xlink:href="#DejaVuSans-442" x="1029.492188"/>
      <use xlink:href="#DejaVuSans-43e" x="1087.744141"/>
      <use xlink:href="#DejaVuSans-432" x="1148.925781"/>
     </g>
    </g>
   </g>
   <g id="matplotlib.axis_2">
    <g id="ytick_1">
     <g id="line2d_23">
      <defs>
       <path id="mde78cab3c1" d="M 0 0 
L -3.5 0 
" style="stroke: #000000; stroke-width: 0.8"/>
      </defs>
      <g>
       <use xlink:href="#mde78cab3c1" x="191.38125" y="497.216637" style="stroke: #000000; stroke-width: 0.8"/>
      </g>
     </g>
     <g id="text_24">
      <!-- 0.0 -->
      <g transform="translate(168.478125 501.015856) scale(0.1 -0.1)">
       <defs>
        <path id="DejaVuSans-2e" d="M 684 794 
L 1344 794 
L 1344 0 
L 684 0 
L 684 794 
z
" transform="scale(0.015625)"/>
       </defs>
       <use xlink:href="#DejaVuSans-30"/>
       <use xlink:href="#DejaVuSans-2e" x="63.623047"/>
       <use xlink:href="#DejaVuSans-30" x="95.410156"/>
      </g>
     </g>
    </g>
    <g id="ytick_2">
     <g id="line2d_24">
      <g>
       <use xlink:href="#mde78cab3c1" x="191.38125" y="450.325567" style="stroke: #000000; stroke-width: 0.8"/>
      </g>
     </g>
     <g id="text_25">
      <!-- 0.2 -->
      <g transform="translate(168.478125 454.124786) scale(0.1 -0.1)">
       <use xlink:href="#DejaVuSans-30"/>
       <use xlink:href="#DejaVuSans-2e" x="63.623047"/>
       <use xlink:href="#DejaVuSans-32" x="95.410156"/>
      </g>
     </g>
    </g>
    <g id="ytick_3">
     <g id="line2d_25">
      <g>
       <use xlink:href="#mde78cab3c1" x="191.38125" y="403.434497" style="stroke: #000000; stroke-width: 0.8"/>
      </g>
     </g>
     <g id="text_26">
      <!-- 0.4 -->
      <g transform="translate(168.478125 407.233716) scale(0.1 -0.1)">
       <use xlink:href="#DejaVuSans-30"/>
       <use xlink:href="#DejaVuSans-2e" x="63.623047"/>
       <use xlink:href="#DejaVuSans-34" x="95.410156"/>
      </g>
     </g>
    </g>
    <g id="ytick_4">
     <g id="line2d_26">
      <g>
       <use xlink:href="#mde78cab3c1" x="191.38125" y="356.543427" style="stroke: #000000; stroke-width: 0.8"/>
      </g>
     </g>
     <g id="text_27">
      <!-- 0.6 -->
      <g transform="translate(168.478125 360.342646) scale(0.1 -0.1)">
       <use xlink:href="#DejaVuSans-30"/>
       <use xlink:href="#DejaVuSans-2e" x="63.623047"/>
       <use xlink:href="#DejaVuSans-36" x="95.410156"/>
      </g>
     </g>
    </g>
    <g id="ytick_5">
     <g id="line2d_27">
      <g>
       <use xlink:href="#mde78cab3c1" x="191.38125" y="309.652357" style="stroke: #000000; stroke-width: 0.8"/>
      </g>
     </g>
     <g id="text_28">
      <!-- 0.8 -->
      <g transform="translate(168.478125 313.451576) scale(0.1 -0.1)">
       <use xlink:href="#DejaVuSans-30"/>
       <use xlink:href="#DejaVuSans-2e" x="63.623047"/>
       <use xlink:href="#DejaVuSans-38" x="95.410156"/>
      </g>
     </g>
    </g>
    <g id="ytick_6">
     <g id="line2d_28">
      <g>
       <use xlink:href="#mde78cab3c1" x="191.38125" y="262.761287" style="stroke: #000000; stroke-width: 0.8"/>
      </g>
     </g>
     <g id="text_29">
      <!-- 1.0 -->
      <g transform="translate(168.478125 266.560506) scale(0.1 -0.1)">
       <use xlink:href="#DejaVuSans-31"/>
       <use xlink:href="#DejaVuSans-2e" x="63.623047"/>
       <use xlink:href="#DejaVuSans-30" x="95.410156"/>
      </g>
     </g>
    </g>
    <g id="ytick_7">
     <g id="line2d_29">
      <g>
       <use xlink:href="#mde78cab3c1" x="191.38125" y="215.870217" style="stroke: #000000; stroke-width: 0.8"/>
      </g>
     </g>
     <g id="text_30">
      <!-- 1.2 -->
      <g transform="translate(168.478125 219.669436) scale(0.1 -0.1)">
       <use xlink:href="#DejaVuSans-31"/>
       <use xlink:href="#DejaVuSans-2e" x="63.623047"/>
       <use xlink:href="#DejaVuSans-32" x="95.410156"/>
      </g>
     </g>
    </g>
    <g id="ytick_8">
     <g id="line2d_30">
      <g>
       <use xlink:href="#mde78cab3c1" x="191.38125" y="168.979147" style="stroke: #000000; stroke-width: 0.8"/>
      </g>
     </g>
     <g id="text_31">
      <!-- 1.4 -->
      <g transform="translate(168.478125 172.778366) scale(0.1 -0.1)">
       <use xlink:href="#DejaVuSans-31"/>
       <use xlink:href="#DejaVuSans-2e" x="63.623047"/>
       <use xlink:href="#DejaVuSans-34" x="95.410156"/>
      </g>
     </g>
    </g>
    <g id="ytick_9">
     <g id="line2d_31">
      <g>
       <use xlink:href="#mde78cab3c1" x="191.38125" y="122.088077" style="stroke: #000000; stroke-width: 0.8"/>
      </g>
     </g>
     <g id="text_32">
      <!-- 1.6 -->
      <g transform="translate(168.478125 125.887296) scale(0.1 -0.1)">
       <use xlink:href="#DejaVuSans-31"/>
       <use xlink:href="#DejaVuSans-2e" x="63.623047"/>
       <use xlink:href="#DejaVuSans-36" x="95.410156"/>
      </g>
     </g>
    </g>
    <g id="text_33">
     <!-- Время выполнения (нс) -->
     <g transform="translate(162.398438 369.379443) rotate(-90) scale(0.1 -0.1)">
      <defs>
       <path id="DejaVuSans-412" d="M 1259 2228 
L 1259 519 
L 2272 519 
Q 2781 519 3026 730 
Q 3272 941 3272 1375 
Q 3272 1813 3026 2020 
Q 2781 2228 2272 2228 
L 1259 2228 
z
M 1259 4147 
L 1259 2741 
L 2194 2741 
Q 2656 2741 2882 2914 
Q 3109 3088 3109 3444 
Q 3109 3797 2882 3972 
Q 2656 4147 2194 4147 
L 1259 4147 
z
M 628 4666 
L 2241 4666 
Q 2963 4666 3353 4366 
Q 3744 4066 3744 3513 
Q 3744 3084 3544 2831 
Q 3344 2578 2956 2516 
Q 3422 2416 3680 2098 
Q 3938 1781 3938 1306 
Q 3938 681 3513 340 
Q 3088 0 2303 0 
L 628 0 
L 628 4666 
z
" transform="scale(0.015625)"/>
       <path id="DejaVuSans-440" d="M 1159 525 
L 1159 -1331 
L 581 -1331 
L 581 3500 
L 1159 3500 
L 1159 2969 
Q 1341 3281 1617 3432 
Q 1894 3584 2278 3584 
Q 2916 3584 3314 3078 
Q 3713 2572 3713 1747 
Q 3713 922 3314 415 
Q 2916 -91 2278 -91 
Q 1894 -91 1617 61 
Q 1341 213 1159 525 
z
M 3116 1747 
Q 3116 2381 2855 2742 
Q 2594 3103 2138 3103 
Q 1681 3103 1420 2742 
Q 1159 2381 1159 1747 
Q 1159 1113 1420 752 
Q 1681 391 2138 391 
Q 2594 391 2855 752 
Q 3116 1113 3116 1747 
z
" transform="scale(0.015625)"/>
       <path id="DejaVuSans-44f" d="M 1181 2491 
Q 1181 2231 1381 2084 
Q 1581 1938 1953 1938 
L 2728 1938 
L 2728 3041 
L 1953 3041 
Q 1581 3041 1381 2897 
Q 1181 2753 1181 2491 
z
M 363 0 
L 1431 1534 
Q 1069 1616 828 1830 
Q 588 2044 588 2491 
Q 588 2997 923 3248 
Q 1259 3500 1938 3500 
L 3306 3500 
L 3306 0 
L 2728 0 
L 2728 1478 
L 2013 1478 
L 981 0 
L 363 0 
z
" transform="scale(0.015625)"/>
       <path id="DejaVuSans-44b" d="M 3909 3500 
L 4484 3500 
L 4484 0 
L 3909 0 
L 3909 3500 
z
M 4197 3584 
L 4197 3584 
z
M 2781 1038 
Q 2781 1319 2576 1466 
Q 2372 1613 1978 1613 
L 1159 1613 
L 1159 459 
L 1978 459 
Q 2372 459 2576 607 
Q 2781 756 2781 1038 
z
M 581 3500 
L 1159 3500 
L 1159 2072 
L 2003 2072 
Q 2672 2072 3033 1817 
Q 3394 1563 3394 1038 
Q 3394 513 3033 256 
Q 2672 0 2003 0 
L 581 0 
L 581 3500 
z
" transform="scale(0.015625)"/>
       <path id="DejaVuSans-43f" d="M 3603 3500 
L 3603 0 
L 3025 0 
L 3025 3041 
L 1159 3041 
L 1159 0 
L 581 0 
L 581 3500 
L 3603 3500 
z
" transform="scale(0.015625)"/>
       <path id="DejaVuSans-28" d="M 1984 4856 
Q 1566 4138 1362 3434 
Q 1159 2731 1159 2009 
Q 1159 1288 1364 580 
Q 1569 -128 1984 -844 
L 1484 -844 
Q 1016 -109 783 600 
Q 550 1309 550 2009 
Q 550 2706 781 3412 
Q 1013 4119 1484 4856 
L 1984 4856 
z
" transform="scale(0.015625)"/>
       <path id="DejaVuSans-29" d="M 513 4856 
L 1013 4856 
Q 1481 4119 1714 3412 
Q 1947 2706 1947 2009 
Q 1947 1309 1714 600 
Q 1481 -109 1013 -844 
L 513 -844 
Q 928 -128 1133 580 
Q 1338 1288 1338 2009 
Q 1338 2731 1133 3434 
Q 928 4138 513 4856 
z
" transform="scale(0.015625)"/>
      </defs>
      <use xlink:href="#DejaVuSans-412"/>
      <use xlink:href="#DejaVuSans-440" x="68.603516"/>
      <use xlink:href="#DejaVuSans-435" x="132.080078"/>
      <use xlink:href="#DejaVuSans-43c" x="193.603516"/>
      <use xlink:href="#DejaVuSans-44f" x="269.042969"/>
      <use xlink:href="#DejaVuSans-20" x="329.199219"/>
      <use xlink:href="#DejaVuSans-432" x="360.986328"/>
      <use xlink:href="#DejaVuSans-44b" x="419.921875"/>
      <use xlink:href="#DejaVuSans-43f" x="498.876953"/>
      <use xlink:href="#DejaVuSans-43e" x="564.257812"/>
      <use xlink:href="#DejaVuSans-43b" x="625.439453"/>
      <use xlink:href="#DejaVuSans-43d" x="689.355469"/>
      <use xlink:href="#DejaVuSans-435" x="754.736328"/>
      <use xlink:href="#DejaVuSans-43d" x="816.259766"/>
      <use xlink:href="#DejaVuSans-438" x="881.640625"/>
      <use xlink:href="#DejaVuSans-44f" x="946.630859"/>
      <use xlink:href="#DejaVuSans-20" x="1006.787109"/>
      <use xlink:href="#DejaVuSans-28" x="1038.574219"/>
      <use xlink:href="#DejaVuSans-43d" x="1077.587891"/>
      <use xlink:href="#DejaVuSans-441" x="1142.96875"/>
      <use xlink:href="#DejaVuSans-29" x="1197.949219"/>
     </g>
    </g>
    <g id="text_34">
     <!-- 1e6 -->
     <g transform="translate(191.38125 96.158437) scale(0.1 -0.1)">
      <defs>
       <path id="DejaVuSans-65" d="M 3597 1894 
L 3597 1613 
L 953 1613 
Q 991 1019 1311 708 
Q 1631 397 2203 397 
Q 2534 397 2845 478 
Q 3156 559 3463 722 
L 3463 178 
Q 3153 47 2828 -22 
Q 2503 -91 2169 -91 
Q 1331 -91 842 396 
Q 353 884 353 1716 
Q 353 2575 817 3079 
Q 1281 3584 2069 3584 
Q 2775 3584 3186 3129 
Q 3597 2675 3597 1894 
z
M 3022 2063 
Q 3016 2534 2758 2815 
Q 2500 3097 2075 3097 
Q 1594 3097 1305 2825 
Q 1016 2553 972 2059 
L 3022 2063 
z
" transform="scale(0.015625)"/>
      </defs>
      <use xlink:href="#DejaVuSans-31"/>
      <use xlink:href="#DejaVuSans-65" x="63.623047"/>
      <use xlink:href="#DejaVuSans-36" x="125.146484"/>
     </g>
    </g>
   </g>
   <g id="line2d_32">
    <path d="M 233.078349 496.911898 
L 239.846137 495.523949 
L 269.925198 487.572423 
L 307.524025 477.353652 
L 345.122851 467.166619 
L 382.721678 455.616205 
L 420.320504 444.764221 
L 457.919331 433.258573 
L 495.518157 421.602942 
L 533.116984 409.518227 
L 570.71581 397.59812 
L 608.314637 385.697922 
L 645.913463 373.197185 
L 683.51229 357.295963 
L 721.111116 345.835047 
L 758.709943 336.198159 
L 796.308769 313.087564 
L 833.907596 309.846913 
L 871.506422 296.512478 
L 909.105249 284.742681 
L 946.704075 270.18898 
L 984.302901 261.073654 
" clip-path="url(#p48af7890f1)" style="fill: none; stroke: #bfbf00; stroke-width: 1.5; stroke-linecap: square"/>
    <defs>
     <path id="m65bea1bace" d="M -0 4.242641 
L 4.242641 0 
L 0 -4.242641 
L -4.242641 -0 
z
" style="stroke: #bfbf00; stroke-linejoin: miter"/>
    </defs>
    <g clip-path="url(#p48af7890f1)">
     <use xlink:href="#m65bea1bace" x="233.078349" y="496.911898" style="fill: #bfbf00; stroke: #bfbf00; stroke-linejoin: miter"/>
     <use xlink:href="#m65bea1bace" x="239.846137" y="495.523949" style="fill: #bfbf00; stroke: #bfbf00; stroke-linejoin: miter"/>
     <use xlink:href="#m65bea1bace" x="269.925198" y="487.572423" style="fill: #bfbf00; stroke: #bfbf00; stroke-linejoin: miter"/>
     <use xlink:href="#m65bea1bace" x="307.524025" y="477.353652" style="fill: #bfbf00; stroke: #bfbf00; stroke-linejoin: miter"/>
     <use xlink:href="#m65bea1bace" x="345.122851" y="467.166619" style="fill: #bfbf00; stroke: #bfbf00; stroke-linejoin: miter"/>
     <use xlink:href="#m65bea1bace" x="382.721678" y="455.616205" style="fill: #bfbf00; stroke: #bfbf00; stroke-linejoin: miter"/>
     <use xlink:href="#m65bea1bace" x="420.320504" y="444.764221" style="fill: #bfbf00; stroke: #bfbf00; stroke-linejoin: miter"/>
     <use xlink:href="#m65bea1bace" x="457.919331" y="433.258573" style="fill: #bfbf00; stroke: #bfbf00; stroke-linejoin: miter"/>
     <use xlink:href="#m65bea1bace" x="495.518157" y="421.602942" style="fill: #bfbf00; stroke: #bfbf00; stroke-linejoin: miter"/>
     <use xlink:href="#m65bea1bace" x="533.116984" y="409.518227" style="fill: #bfbf00; stroke: #bfbf00; stroke-linejoin: miter"/>
     <use xlink:href="#m65bea1bace" x="570.71581" y="397.59812" style="fill: #bfbf00; stroke: #bfbf00; stroke-linejoin: miter"/>
     <use xlink:href="#m65bea1bace" x="608.314637" y="385.697922" style="fill: #bfbf00; stroke: #bfbf00; stroke-linejoin: miter"/>
     <use xlink:href="#m65bea1bace" x="645.913463" y="373.197185" style="fill: #bfbf00; stroke: #bfbf00; stroke-linejoin: miter"/>
     <use xlink:href="#m65bea1bace" x="683.51229" y="357.295963" style="fill: #bfbf00; stroke: #bfbf00; stroke-linejoin: miter"/>
     <use xlink:href="#m65bea1bace" x="721.111116" y="345.835047" style="fill: #bfbf00; stroke: #bfbf00; stroke-linejoin: miter"/>
     <use xlink:href="#m65bea1bace" x="758.709943" y="336.198159" style="fill: #bfbf00; stroke: #bfbf00; stroke-linejoin: miter"/>
     <use xlink:href="#m65bea1bace" x="796.308769" y="313.087564" style="fill: #bfbf00; stroke: #bfbf00; stroke-linejoin: miter"/>
     <use xlink:href="#m65bea1bace" x="833.907596" y="309.846913" style="fill: #bfbf00; stroke: #bfbf00; stroke-linejoin: miter"/>
     <use xlink:href="#m65bea1bace" x="871.506422" y="296.512478" style="fill: #bfbf00; stroke: #bfbf00; stroke-linejoin: miter"/>
     <use xlink:href="#m65bea1bace" x="909.105249" y="284.742681" style="fill: #bfbf00; stroke: #bfbf00; stroke-linejoin: miter"/>
     <use xlink:href="#m65bea1bace" x="946.704075" y="270.18898" style="fill: #bfbf00; stroke: #bfbf00; stroke-linejoin: miter"/>
     <use xlink:href="#m65bea1bace" x="984.302901" y="261.073654" style="fill: #bfbf00; stroke: #bfbf00; stroke-linejoin: miter"/>
    </g>
   </g>
   <g id="LineCollection_1">
    <path d="M 233.078349 496.960612 
L 233.078349 496.840805 
" clip-path="url(#p48af7890f1)" style="fill: none; stroke: #bfbf00; stroke-width: 1.5"/>
    <path d="M 239.846137 495.593503 
L 239.846137 495.373584 
" clip-path="url(#p48af7890f1)" style="fill: none; stroke: #bfbf00; stroke-width: 1.5"/>
    <path d="M 269.925198 488.083898 
L 269.925198 487.210317 
" clip-path="url(#p48af7890f1)" style="fill: none; stroke: #bfbf00; stroke-width: 1.5"/>
    <path d="M 307.524025 478.150728 
L 307.524025 471.689139 
" clip-path="url(#p48af7890f1)" style="fill: none; stroke: #bfbf00; stroke-width: 1.5"/>
    <path d="M 345.122851 467.771624 
L 345.122851 447.248341 
" clip-path="url(#p48af7890f1)" style="fill: none; stroke: #bfbf00; stroke-width: 1.5"/>
    <path d="M 382.721678 456.800521 
L 382.721678 427.250706 
" clip-path="url(#p48af7890f1)" style="fill: none; stroke: #bfbf00; stroke-width: 1.5"/>
    <path d="M 420.320504 445.448427 
L 420.320504 429.614016 
" clip-path="url(#p48af7890f1)" style="fill: none; stroke: #bfbf00; stroke-width: 1.5"/>
    <path d="M 457.919331 434.052725 
L 457.919331 410.143203 
" clip-path="url(#p48af7890f1)" style="fill: none; stroke: #bfbf00; stroke-width: 1.5"/>
    <path d="M 495.518157 422.611304 
L 495.518157 416.728819 
" clip-path="url(#p48af7890f1)" style="fill: none; stroke: #bfbf00; stroke-width: 1.5"/>
    <path d="M 533.116984 411.045621 
L 533.116984 394.714165 
" clip-path="url(#p48af7890f1)" style="fill: none; stroke: #bfbf00; stroke-width: 1.5"/>
    <path d="M 570.71581 398.309772 
L 570.71581 390.11884 
" clip-path="url(#p48af7890f1)" style="fill: none; stroke: #bfbf00; stroke-width: 1.5"/>
    <path d="M 608.314637 386.935405 
L 608.314637 381.989804 
" clip-path="url(#p48af7890f1)" style="fill: none; stroke: #bfbf00; stroke-width: 1.5"/>
    <path d="M 645.913463 374.36813 
L 645.913463 216.689638 
" clip-path="url(#p48af7890f1)" style="fill: none; stroke: #bfbf00; stroke-width: 1.5"/>
    <path d="M 683.51229 362.997514 
L 683.51229 345.744179 
" clip-path="url(#p48af7890f1)" style="fill: none; stroke: #bfbf00; stroke-width: 1.5"/>
    <path d="M 721.111116 349.132762 
L 721.111116 266.260299 
" clip-path="url(#p48af7890f1)" style="fill: none; stroke: #bfbf00; stroke-width: 1.5"/>
    <path d="M 758.709943 337.424531 
L 758.709943 316.080185 
" clip-path="url(#p48af7890f1)" style="fill: none; stroke: #bfbf00; stroke-width: 1.5"/>
    <path d="M 796.308769 325.082333 
L 796.308769 304.922689 
" clip-path="url(#p48af7890f1)" style="fill: none; stroke: #bfbf00; stroke-width: 1.5"/>
    <path d="M 833.907596 313.1162 
L 833.907596 118.101398 
" clip-path="url(#p48af7890f1)" style="fill: none; stroke: #bfbf00; stroke-width: 1.5"/>
    <path d="M 871.506422 299.26833 
L 871.506422 275.046747 
" clip-path="url(#p48af7890f1)" style="fill: none; stroke: #bfbf00; stroke-width: 1.5"/>
    <path d="M 909.105249 286.555223 
L 909.105249 268.606025 
" clip-path="url(#p48af7890f1)" style="fill: none; stroke: #bfbf00; stroke-width: 1.5"/>
    <path d="M 946.704075 272.988464 
L 946.704075 251.877401 
" clip-path="url(#p48af7890f1)" style="fill: none; stroke: #bfbf00; stroke-width: 1.5"/>
    <path d="M 984.302901 262.321683 
L 984.302901 244.161241 
" clip-path="url(#p48af7890f1)" style="fill: none; stroke: #bfbf00; stroke-width: 1.5"/>
   </g>
   <g id="line2d_33">
    <defs>
     <path id="m7a8e251f30" d="M 3 0 
L -3 -0 
" style="stroke: #bfbf00"/>
    </defs>
    <g clip-path="url(#p48af7890f1)">
     <use xlink:href="#m7a8e251f30" x="233.078349" y="496.960612" style="fill: #bfbf00; stroke: #bfbf00"/>
     <use xlink:href="#m7a8e251f30" x="239.846137" y="495.593503" style="fill: #bfbf00; stroke: #bfbf00"/>
     <use xlink:href="#m7a8e251f30" x="269.925198" y="488.083898" style="fill: #bfbf00; stroke: #bfbf00"/>
     <use xlink:href="#m7a8e251f30" x="307.524025" y="478.150728" style="fill: #bfbf00; stroke: #bfbf00"/>
     <use xlink:href="#m7a8e251f30" x="345.122851" y="467.771624" style="fill: #bfbf00; stroke: #bfbf00"/>
     <use xlink:href="#m7a8e251f30" x="382.721678" y="456.800521" style="fill: #bfbf00; stroke: #bfbf00"/>
     <use xlink:href="#m7a8e251f30" x="420.320504" y="445.448427" style="fill: #bfbf00; stroke: #bfbf00"/>
     <use xlink:href="#m7a8e251f30" x="457.919331" y="434.052725" style="fill: #bfbf00; stroke: #bfbf00"/>
     <use xlink:href="#m7a8e251f30" x="495.518157" y="422.611304" style="fill: #bfbf00; stroke: #bfbf00"/>
     <use xlink:href="#m7a8e251f30" x="533.116984" y="411.045621" style="fill: #bfbf00; stroke: #bfbf00"/>
     <use xlink:href="#m7a8e251f30" x="570.71581" y="398.309772" style="fill: #bfbf00; stroke: #bfbf00"/>
     <use xlink:href="#m7a8e251f30" x="608.314637" y="386.935405" style="fill: #bfbf00; stroke: #bfbf00"/>
     <use xlink:href="#m7a8e251f30" x="645.913463" y="374.36813" style="fill: #bfbf00; stroke: #bfbf00"/>
     <use xlink:href="#m7a8e251f30" x="683.51229" y="362.997514" style="fill: #bfbf00; stroke: #bfbf00"/>
     <use xlink:href="#m7a8e251f30" x="721.111116" y="349.132762" style="fill: #bfbf00; stroke: #bfbf00"/>
     <use xlink:href="#m7a8e251f30" x="758.709943" y="337.424531" style="fill: #bfbf00; stroke: #bfbf00"/>
     <use xlink:href="#m7a8e251f30" x="796.308769" y="325.082333" style="fill: #bfbf00; stroke: #bfbf00"/>
     <use xlink:href="#m7a8e251f30" x="833.907596" y="313.1162" style="fill: #bfbf00; stroke: #bfbf00"/>
     <use xlink:href="#m7a8e251f30" x="871.506422" y="299.26833" style="fill: #bfbf00; stroke: #bfbf00"/>
     <use xlink:href="#m7a8e251f30" x="909.105249" y="286.555223" style="fill: #bfbf00; stroke: #bfbf00"/>
     <use xlink:href="#m7a8e251f30" x="946.704075" y="272.988464" style="fill: #bfbf00; stroke: #bfbf00"/>
     <use xlink:href="#m7a8e251f30" x="984.302901" y="262.321683" style="fill: #bfbf00; stroke: #bfbf00"/>
    </g>
   </g>
   <g id="line2d_34">
    <g clip-path="url(#p48af7890f1)">
     <use xlink:href="#m7a8e251f30" x="233.078349" y="496.840805" style="fill: #bfbf00; stroke: #bfbf00"/>
     <use xlink:href="#m7a8e251f30" x="239.846137" y="495.373584" style="fill: #bfbf00; stroke: #bfbf00"/>
     <use xlink:href="#m7a8e251f30" x="269.925198" y="487.210317" style="fill: #bfbf00; stroke: #bfbf00"/>
     <use xlink:href="#m7a8e251f30" x="307.524025" y="471.689139" style="fill: #bfbf00; stroke: #bfbf00"/>
     <use xlink:href="#m7a8e251f30" x="345.122851" y="447.248341" style="fill: #bfbf00; stroke: #bfbf00"/>
     <use xlink:href="#m7a8e251f30" x="382.721678" y="427.250706" style="fill: #bfbf00; stroke: #bfbf00"/>
     <use xlink:href="#m7a8e251f30" x="420.320504" y="429.614016" style="fill: #bfbf00; stroke: #bfbf00"/>
     <use xlink:href="#m7a8e251f30" x="457.919331" y="410.143203" style="fill: #bfbf00; stroke: #bfbf00"/>
     <use xlink:href="#m7a8e251f30" x="495.518157" y="416.728819" style="fill: #bfbf00; stroke: #bfbf00"/>
     <use xlink:href="#m7a8e251f30" x="533.116984" y="394.714165" style="fill: #bfbf00; stroke: #bfbf00"/>
     <use xlink:href="#m7a8e251f30" x="570.71581" y="390.11884" style="fill: #bfbf00; stroke: #bfbf00"/>
     <use xlink:href="#m7a8e251f30" x="608.314637" y="381.989804" style="fill: #bfbf00; stroke: #bfbf00"/>
     <use xlink:href="#m7a8e251f30" x="645.913463" y="216.689638" style="fill: #bfbf00; stroke: #bfbf00"/>
     <use xlink:href="#m7a8e251f30" x="683.51229" y="345.744179" style="fill: #bfbf00; stroke: #bfbf00"/>
     <use xlink:href="#m7a8e251f30" x="721.111116" y="266.260299" style="fill: #bfbf00; stroke: #bfbf00"/>
     <use xlink:href="#m7a8e251f30" x="758.709943" y="316.080185" style="fill: #bfbf00; stroke: #bfbf00"/>
     <use xlink:href="#m7a8e251f30" x="796.308769" y="304.922689" style="fill: #bfbf00; stroke: #bfbf00"/>
     <use xlink:href="#m7a8e251f30" x="833.907596" y="118.101398" style="fill: #bfbf00; stroke: #bfbf00"/>
     <use xlink:href="#m7a8e251f30" x="871.506422" y="275.046747" style="fill: #bfbf00; stroke: #bfbf00"/>
     <use xlink:href="#m7a8e251f30" x="909.105249" y="268.606025" style="fill: #bfbf00; stroke: #bfbf00"/>
     <use xlink:href="#m7a8e251f30" x="946.704075" y="251.877401" style="fill: #bfbf00; stroke: #bfbf00"/>
     <use xlink:href="#m7a8e251f30" x="984.302901" y="244.161241" style="fill: #bfbf00; stroke: #bfbf00"/>
    </g>
   </g>
   <g id="line2d_35">
    <path d="M 980.543019 261.166815 
L 988.062784 261.166815 
L 988.062784 259.574394 
L 980.543019 259.574394 
L 980.543019 261.166815 
" clip-path="url(#p48af7890f1)" style="fill: none; stroke: #000000; stroke-linecap: square"/>
   </g>
   <g id="line2d_36">
    <path d="M 984.302901 261.166815 
L 984.302901 261.166815 
" clip-path="url(#p48af7890f1)" style="fill: none; stroke: #000000; stroke-linecap: square"/>
   </g>
   <g id="line2d_37">
    <path d="M 984.302901 259.574394 
L 984.302901 259.574394 
" clip-path="url(#p48af7890f1)" style="fill: none; stroke: #000000; stroke-linecap: square"/>
   </g>
   <g id="line2d_38">
    <path d="M 981.670984 261.166815 
L 986.934819 261.166815 
" clip-path="url(#p48af7890f1)" style="fill: none; stroke: #000000; stroke-linecap: square"/>
   </g>
   <g id="line2d_39">
    <path d="M 981.670984 259.574394 
L 986.934819 259.574394 
" clip-path="url(#p48af7890f1)" style="fill: none; stroke: #000000; stroke-linecap: square"/>
   </g>
   <g id="line2d_40">
    <path d="M 303.764142 477.764522 
L 311.283908 477.764522 
L 311.283908 477.202122 
L 303.764142 477.202122 
L 303.764142 477.764522 
" clip-path="url(#p48af7890f1)" style="fill: none; stroke: #000000; stroke-linecap: square"/>
   </g>
   <g id="line2d_41">
    <path d="M 307.524025 477.764522 
L 307.524025 477.764522 
" clip-path="url(#p48af7890f1)" style="fill: none; stroke: #000000; stroke-linecap: square"/>
   </g>
   <g id="line2d_42">
    <path d="M 307.524025 477.202122 
L 307.524025 477.202122 
" clip-path="url(#p48af7890f1)" style="fill: none; stroke: #000000; stroke-linecap: square"/>
   </g>
   <g id="line2d_43">
    <path d="M 304.892107 477.764522 
L 310.155943 477.764522 
" clip-path="url(#p48af7890f1)" style="fill: none; stroke: #000000; stroke-linecap: square"/>
   </g>
   <g id="line2d_44">
    <path d="M 304.892107 477.202122 
L 310.155943 477.202122 
" clip-path="url(#p48af7890f1)" style="fill: none; stroke: #000000; stroke-linecap: square"/>
   </g>
   <g id="line2d_45">
    <path d="M 236.086255 495.532251 
L 243.60602 495.532251 
L 243.60602 495.469945 
L 236.086255 495.469945 
L 236.086255 495.532251 
" clip-path="url(#p48af7890f1)" style="fill: none; stroke: #000000; stroke-linecap: square"/>
   </g>
   <g id="line2d_46">
    <path d="M 239.846137 495.532251 
L 239.846137 495.532251 
" clip-path="url(#p48af7890f1)" style="fill: none; stroke: #000000; stroke-linecap: square"/>
   </g>
   <g id="line2d_47">
    <path d="M 239.846137 495.469945 
L 239.846137 495.469945 
" clip-path="url(#p48af7890f1)" style="fill: none; stroke: #000000; stroke-linecap: square"/>
   </g>
   <g id="line2d_48">
    <path d="M 237.214219 495.532251 
L 242.478055 495.532251 
" clip-path="url(#p48af7890f1)" style="fill: none; stroke: #000000; stroke-linecap: square"/>
   </g>
   <g id="line2d_49">
    <path d="M 237.214219 495.469945 
L 242.478055 495.469945 
" clip-path="url(#p48af7890f1)" style="fill: none; stroke: #000000; stroke-linecap: square"/>
   </g>
   <g id="line2d_50">
    <path d="M 229.318466 496.929605 
L 236.838231 496.929605 
L 236.838231 496.905398 
L 229.318466 496.905398 
L 229.318466 496.929605 
" clip-path="url(#p48af7890f1)" style="fill: none; stroke: #000000; stroke-linecap: square"/>
   </g>
   <g id="line2d_51">
    <path d="M 233.078349 496.929605 
L 233.078349 496.929605 
" clip-path="url(#p48af7890f1)" style="fill: none; stroke: #000000; stroke-linecap: square"/>
   </g>
   <g id="line2d_52">
    <path d="M 233.078349 496.905398 
L 233.078349 496.905398 
" clip-path="url(#p48af7890f1)" style="fill: none; stroke: #000000; stroke-linecap: square"/>
   </g>
   <g id="line2d_53">
    <path d="M 230.446431 496.929605 
L 235.710266 496.929605 
" clip-path="url(#p48af7890f1)" style="fill: none; stroke: #000000; stroke-linecap: square"/>
   </g>
   <g id="line2d_54">
    <path d="M 230.446431 496.905398 
L 235.710266 496.905398 
" clip-path="url(#p48af7890f1)" style="fill: none; stroke: #000000; stroke-linecap: square"/>
   </g>
   <g id="line2d_55">
    <path d="M 341.362969 467.452941 
L 348.882734 467.452941 
L 348.882734 466.775189 
L 341.362969 466.775189 
L 341.362969 467.452941 
" clip-path="url(#p48af7890f1)" style="fill: none; stroke: #000000; stroke-linecap: square"/>
   </g>
   <g id="line2d_56">
    <path d="M 345.122851 467.452941 
L 345.122851 467.452941 
" clip-path="url(#p48af7890f1)" style="fill: none; stroke: #000000; stroke-linecap: square"/>
   </g>
   <g id="line2d_57">
    <path d="M 345.122851 466.775189 
L 345.122851 466.775189 
" clip-path="url(#p48af7890f1)" style="fill: none; stroke: #000000; stroke-linecap: square"/>
   </g>
   <g id="line2d_58">
    <path d="M 342.490934 467.452941 
L 347.754769 467.452941 
" clip-path="url(#p48af7890f1)" style="fill: none; stroke: #000000; stroke-linecap: square"/>
   </g>
   <g id="line2d_59">
    <path d="M 342.490934 466.775189 
L 347.754769 466.775189 
" clip-path="url(#p48af7890f1)" style="fill: none; stroke: #000000; stroke-linecap: square"/>
   </g>
   <g id="line2d_60">
    <path d="M 378.961795 456.450244 
L 386.481561 456.450244 
L 386.481561 455.862172 
L 378.961795 455.862172 
L 378.961795 456.450244 
" clip-path="url(#p48af7890f1)" style="fill: none; stroke: #000000; stroke-linecap: square"/>
   </g>
   <g id="line2d_61">
    <path d="M 382.721678 456.450244 
L 382.721678 456.450244 
" clip-path="url(#p48af7890f1)" style="fill: none; stroke: #000000; stroke-linecap: square"/>
   </g>
   <g id="line2d_62">
    <path d="M 382.721678 455.862172 
L 382.721678 455.862172 
" clip-path="url(#p48af7890f1)" style="fill: none; stroke: #000000; stroke-linecap: square"/>
   </g>
   <g id="line2d_63">
    <path d="M 380.08976 456.450244 
L 385.353596 456.450244 
" clip-path="url(#p48af7890f1)" style="fill: none; stroke: #000000; stroke-linecap: square"/>
   </g>
   <g id="line2d_64">
    <path d="M 380.08976 455.862172 
L 385.353596 455.862172 
" clip-path="url(#p48af7890f1)" style="fill: none; stroke: #000000; stroke-linecap: square"/>
   </g>
   <g id="line2d_65">
    <path d="M 416.560622 445.24703 
L 424.080387 445.24703 
L 424.080387 444.42204 
L 416.560622 444.42204 
L 416.560622 445.24703 
" clip-path="url(#p48af7890f1)" style="fill: none; stroke: #000000; stroke-linecap: square"/>
   </g>
   <g id="line2d_66">
    <path d="M 420.320504 445.24703 
L 420.320504 445.24703 
" clip-path="url(#p48af7890f1)" style="fill: none; stroke: #000000; stroke-linecap: square"/>
   </g>
   <g id="line2d_67">
    <path d="M 420.320504 444.42204 
L 420.320504 444.42204 
" clip-path="url(#p48af7890f1)" style="fill: none; stroke: #000000; stroke-linecap: square"/>
   </g>
   <g id="line2d_68">
    <path d="M 417.688587 445.24703 
L 422.952422 445.24703 
" clip-path="url(#p48af7890f1)" style="fill: none; stroke: #000000; stroke-linecap: square"/>
   </g>
   <g id="line2d_69">
    <path d="M 417.688587 444.42204 
L 422.952422 444.42204 
" clip-path="url(#p48af7890f1)" style="fill: none; stroke: #000000; stroke-linecap: square"/>
   </g>
   <g id="line2d_70">
    <path d="M 454.159448 433.533523 
L 461.679213 433.533523 
L 461.679213 433.096147 
L 454.159448 433.096147 
L 454.159448 433.533523 
" clip-path="url(#p48af7890f1)" style="fill: none; stroke: #000000; stroke-linecap: square"/>
   </g>
   <g id="line2d_71">
    <path d="M 457.919331 433.533523 
L 457.919331 433.533523 
" clip-path="url(#p48af7890f1)" style="fill: none; stroke: #000000; stroke-linecap: square"/>
   </g>
   <g id="line2d_72">
    <path d="M 457.919331 433.096147 
L 457.919331 433.096147 
" clip-path="url(#p48af7890f1)" style="fill: none; stroke: #000000; stroke-linecap: square"/>
   </g>
   <g id="line2d_73">
    <path d="M 455.287413 433.533523 
L 460.551249 433.533523 
" clip-path="url(#p48af7890f1)" style="fill: none; stroke: #000000; stroke-linecap: square"/>
   </g>
   <g id="line2d_74">
    <path d="M 455.287413 433.096147 
L 460.551249 433.096147 
" clip-path="url(#p48af7890f1)" style="fill: none; stroke: #000000; stroke-linecap: square"/>
   </g>
   <g id="line2d_75">
    <path d="M 491.758275 421.951312 
L 499.27804 421.951312 
L 499.27804 421.331705 
L 491.758275 421.331705 
L 491.758275 421.951312 
" clip-path="url(#p48af7890f1)" style="fill: none; stroke: #000000; stroke-linecap: square"/>
   </g>
   <g id="line2d_76">
    <path d="M 495.518157 421.951312 
L 495.518157 421.951312 
" clip-path="url(#p48af7890f1)" style="fill: none; stroke: #000000; stroke-linecap: square"/>
   </g>
   <g id="line2d_77">
    <path d="M 495.518157 421.331705 
L 495.518157 421.331705 
" clip-path="url(#p48af7890f1)" style="fill: none; stroke: #000000; stroke-linecap: square"/>
   </g>
   <g id="line2d_78">
    <path d="M 492.886239 421.951312 
L 498.150075 421.951312 
" clip-path="url(#p48af7890f1)" style="fill: none; stroke: #000000; stroke-linecap: square"/>
   </g>
   <g id="line2d_79">
    <path d="M 492.886239 421.331705 
L 498.150075 421.331705 
" clip-path="url(#p48af7890f1)" style="fill: none; stroke: #000000; stroke-linecap: square"/>
   </g>
   <g id="line2d_80">
    <path d="M 529.357101 410.708123 
L 536.876866 410.708123 
L 536.876866 409.873638 
L 529.357101 409.873638 
L 529.357101 410.708123 
" clip-path="url(#p48af7890f1)" style="fill: none; stroke: #000000; stroke-linecap: square"/>
   </g>
   <g id="line2d_81">
    <path d="M 533.116984 410.708123 
L 533.116984 410.708123 
" clip-path="url(#p48af7890f1)" style="fill: none; stroke: #000000; stroke-linecap: square"/>
   </g>
   <g id="line2d_82">
    <path d="M 533.116984 409.873638 
L 533.116984 409.873638 
" clip-path="url(#p48af7890f1)" style="fill: none; stroke: #000000; stroke-linecap: square"/>
   </g>
   <g id="line2d_83">
    <path d="M 530.485066 410.708123 
L 535.748902 410.708123 
" clip-path="url(#p48af7890f1)" style="fill: none; stroke: #000000; stroke-linecap: square"/>
   </g>
   <g id="line2d_84">
    <path d="M 530.485066 409.873638 
L 535.748902 409.873638 
" clip-path="url(#p48af7890f1)" style="fill: none; stroke: #000000; stroke-linecap: square"/>
   </g>
   <g id="line2d_85">
    <path d="M 566.955928 397.822398 
L 574.475693 397.822398 
L 574.475693 396.960189 
L 566.955928 396.960189 
L 566.955928 397.822398 
" clip-path="url(#p48af7890f1)" style="fill: none; stroke: #000000; stroke-linecap: square"/>
   </g>
   <g id="line2d_86">
    <path d="M 570.71581 397.822398 
L 570.71581 397.822398 
" clip-path="url(#p48af7890f1)" style="fill: none; stroke: #000000; stroke-linecap: square"/>
   </g>
   <g id="line2d_87">
    <path d="M 570.71581 396.960189 
L 570.71581 396.960189 
" clip-path="url(#p48af7890f1)" style="fill: none; stroke: #000000; stroke-linecap: square"/>
   </g>
   <g id="line2d_88">
    <path d="M 568.083892 397.822398 
L 573.347728 397.822398 
" clip-path="url(#p48af7890f1)" style="fill: none; stroke: #000000; stroke-linecap: square"/>
   </g>
   <g id="line2d_89">
    <path d="M 568.083892 396.960189 
L 573.347728 396.960189 
" clip-path="url(#p48af7890f1)" style="fill: none; stroke: #000000; stroke-linecap: square"/>
   </g>
   <g id="line2d_90">
    <path d="M 604.554754 386.134037 
L 612.074519 386.134037 
L 612.074519 385.286188 
L 604.554754 385.286188 
L 604.554754 386.134037 
" clip-path="url(#p48af7890f1)" style="fill: none; stroke: #000000; stroke-linecap: square"/>
   </g>
   <g id="line2d_91">
    <path d="M 608.314637 386.134037 
L 608.314637 386.134037 
" clip-path="url(#p48af7890f1)" style="fill: none; stroke: #000000; stroke-linecap: square"/>
   </g>
   <g id="line2d_92">
    <path d="M 608.314637 385.286188 
L 608.314637 385.286188 
" clip-path="url(#p48af7890f1)" style="fill: none; stroke: #000000; stroke-linecap: square"/>
   </g>
   <g id="line2d_93">
    <path d="M 605.682719 386.134037 
L 610.946555 386.134037 
" clip-path="url(#p48af7890f1)" style="fill: none; stroke: #000000; stroke-linecap: square"/>
   </g>
   <g id="line2d_94">
    <path d="M 605.682719 385.286188 
L 610.946555 385.286188 
" clip-path="url(#p48af7890f1)" style="fill: none; stroke: #000000; stroke-linecap: square"/>
   </g>
   <g id="line2d_95">
    <path d="M 266.165316 487.857649 
L 273.685081 487.857649 
L 273.685081 487.397823 
L 266.165316 487.397823 
L 266.165316 487.857649 
" clip-path="url(#p48af7890f1)" style="fill: none; stroke: #000000; stroke-linecap: square"/>
   </g>
   <g id="line2d_96">
    <path d="M 269.925198 487.857649 
L 269.925198 487.857649 
" clip-path="url(#p48af7890f1)" style="fill: none; stroke: #000000; stroke-linecap: square"/>
   </g>
   <g id="line2d_97">
    <path d="M 269.925198 487.397823 
L 269.925198 487.397823 
" clip-path="url(#p48af7890f1)" style="fill: none; stroke: #000000; stroke-linecap: square"/>
   </g>
   <g id="line2d_98">
    <path d="M 267.293281 487.857649 
L 272.557116 487.857649 
" clip-path="url(#p48af7890f1)" style="fill: none; stroke: #000000; stroke-linecap: square"/>
   </g>
   <g id="line2d_99">
    <path d="M 267.293281 487.397823 
L 272.557116 487.397823 
" clip-path="url(#p48af7890f1)" style="fill: none; stroke: #000000; stroke-linecap: square"/>
   </g>
   <g id="line2d_100">
    <path d="M 642.153581 373.639325 
L 649.673346 373.639325 
L 649.673346 373.027924 
L 642.153581 373.027924 
L 642.153581 373.639325 
" clip-path="url(#p48af7890f1)" style="fill: none; stroke: #000000; stroke-linecap: square"/>
   </g>
   <g id="line2d_101">
    <path d="M 645.913463 373.639325 
L 645.913463 373.639325 
" clip-path="url(#p48af7890f1)" style="fill: none; stroke: #000000; stroke-linecap: square"/>
   </g>
   <g id="line2d_102">
    <path d="M 645.913463 373.027924 
L 645.913463 373.027924 
" clip-path="url(#p48af7890f1)" style="fill: none; stroke: #000000; stroke-linecap: square"/>
   </g>
   <g id="line2d_103">
    <path d="M 643.281545 373.639325 
L 648.545381 373.639325 
" clip-path="url(#p48af7890f1)" style="fill: none; stroke: #000000; stroke-linecap: square"/>
   </g>
   <g id="line2d_104">
    <path d="M 643.281545 373.027924 
L 648.545381 373.027924 
" clip-path="url(#p48af7890f1)" style="fill: none; stroke: #000000; stroke-linecap: square"/>
   </g>
   <g id="line2d_105">
    <path d="M 679.752407 362.055766 
L 687.272172 362.055766 
L 687.272172 361.245195 
L 679.752407 361.245195 
L 679.752407 362.055766 
" clip-path="url(#p48af7890f1)" style="fill: none; stroke: #000000; stroke-linecap: square"/>
   </g>
   <g id="line2d_106">
    <path d="M 683.51229 362.055766 
L 683.51229 362.055766 
" clip-path="url(#p48af7890f1)" style="fill: none; stroke: #000000; stroke-linecap: square"/>
   </g>
   <g id="line2d_107">
    <path d="M 683.51229 361.245195 
L 683.51229 361.245195 
" clip-path="url(#p48af7890f1)" style="fill: none; stroke: #000000; stroke-linecap: square"/>
   </g>
   <g id="line2d_108">
    <path d="M 680.880372 362.055766 
L 686.144208 362.055766 
" clip-path="url(#p48af7890f1)" style="fill: none; stroke: #000000; stroke-linecap: square"/>
   </g>
   <g id="line2d_109">
    <path d="M 680.880372 361.245195 
L 686.144208 361.245195 
" clip-path="url(#p48af7890f1)" style="fill: none; stroke: #000000; stroke-linecap: square"/>
   </g>
   <g id="line2d_110">
    <path d="M 717.351234 348.507939 
L 724.870999 348.507939 
L 724.870999 347.099448 
L 717.351234 347.099448 
L 717.351234 348.507939 
" clip-path="url(#p48af7890f1)" style="fill: none; stroke: #000000; stroke-linecap: square"/>
   </g>
   <g id="line2d_111">
    <path d="M 721.111116 348.507939 
L 721.111116 348.507939 
" clip-path="url(#p48af7890f1)" style="fill: none; stroke: #000000; stroke-linecap: square"/>
   </g>
   <g id="line2d_112">
    <path d="M 721.111116 347.099448 
L 721.111116 347.099448 
" clip-path="url(#p48af7890f1)" style="fill: none; stroke: #000000; stroke-linecap: square"/>
   </g>
   <g id="line2d_113">
    <path d="M 718.479198 348.507939 
L 723.743034 348.507939 
" clip-path="url(#p48af7890f1)" style="fill: none; stroke: #000000; stroke-linecap: square"/>
   </g>
   <g id="line2d_114">
    <path d="M 718.479198 347.099448 
L 723.743034 347.099448 
" clip-path="url(#p48af7890f1)" style="fill: none; stroke: #000000; stroke-linecap: square"/>
   </g>
   <g id="line2d_115">
    <path d="M 754.95006 336.775676 
L 762.469825 336.775676 
L 762.469825 335.477555 
L 754.95006 335.477555 
L 754.95006 336.775676 
" clip-path="url(#p48af7890f1)" style="fill: none; stroke: #000000; stroke-linecap: square"/>
   </g>
   <g id="line2d_116">
    <path d="M 758.709943 336.775676 
L 758.709943 336.775676 
" clip-path="url(#p48af7890f1)" style="fill: none; stroke: #000000; stroke-linecap: square"/>
   </g>
   <g id="line2d_117">
    <path d="M 758.709943 335.477555 
L 758.709943 335.477555 
" clip-path="url(#p48af7890f1)" style="fill: none; stroke: #000000; stroke-linecap: square"/>
   </g>
   <g id="line2d_118">
    <path d="M 756.078025 336.775676 
L 761.34186 336.775676 
" clip-path="url(#p48af7890f1)" style="fill: none; stroke: #000000; stroke-linecap: square"/>
   </g>
   <g id="line2d_119">
    <path d="M 756.078025 335.477555 
L 761.34186 335.477555 
" clip-path="url(#p48af7890f1)" style="fill: none; stroke: #000000; stroke-linecap: square"/>
   </g>
   <g id="line2d_120">
    <path d="M 792.548886 324.071596 
L 800.068652 324.071596 
L 800.068652 321.38632 
L 792.548886 321.38632 
L 792.548886 324.071596 
" clip-path="url(#p48af7890f1)" style="fill: none; stroke: #000000; stroke-linecap: square"/>
   </g>
   <g id="line2d_121">
    <path d="M 796.308769 324.071596 
L 796.308769 324.071596 
" clip-path="url(#p48af7890f1)" style="fill: none; stroke: #000000; stroke-linecap: square"/>
   </g>
   <g id="line2d_122">
    <path d="M 796.308769 321.38632 
L 796.308769 321.38632 
" clip-path="url(#p48af7890f1)" style="fill: none; stroke: #000000; stroke-linecap: square"/>
   </g>
   <g id="line2d_123">
    <path d="M 793.676851 324.071596 
L 798.940687 324.071596 
" clip-path="url(#p48af7890f1)" style="fill: none; stroke: #000000; stroke-linecap: square"/>
   </g>
   <g id="line2d_124">
    <path d="M 793.676851 321.38632 
L 798.940687 321.38632 
" clip-path="url(#p48af7890f1)" style="fill: none; stroke: #000000; stroke-linecap: square"/>
   </g>
   <g id="line2d_125">
    <path d="M 830.147713 312.612532 
L 837.667478 312.612532 
L 837.667478 311.5525 
L 830.147713 311.5525 
L 830.147713 312.612532 
" clip-path="url(#p48af7890f1)" style="fill: none; stroke: #000000; stroke-linecap: square"/>
   </g>
   <g id="line2d_126">
    <path d="M 833.907596 312.612532 
L 833.907596 312.612532 
" clip-path="url(#p48af7890f1)" style="fill: none; stroke: #000000; stroke-linecap: square"/>
   </g>
   <g id="line2d_127">
    <path d="M 833.907596 311.5525 
L 833.907596 311.5525 
" clip-path="url(#p48af7890f1)" style="fill: none; stroke: #000000; stroke-linecap: square"/>
   </g>
   <g id="line2d_128">
    <path d="M 831.275678 312.612532 
L 836.539513 312.612532 
" clip-path="url(#p48af7890f1)" style="fill: none; stroke: #000000; stroke-linecap: square"/>
   </g>
   <g id="line2d_129">
    <path d="M 831.275678 311.5525 
L 836.539513 311.5525 
" clip-path="url(#p48af7890f1)" style="fill: none; stroke: #000000; stroke-linecap: square"/>
   </g>
   <g id="line2d_130">
    <path d="M 867.746539 298.583017 
L 875.266305 298.583017 
L 875.266305 296.390918 
L 867.746539 296.390918 
L 867.746539 298.583017 
" clip-path="url(#p48af7890f1)" style="fill: none; stroke: #000000; stroke-linecap: square"/>
   </g>
   <g id="line2d_131">
    <path d="M 871.506422 298.583017 
L 871.506422 298.583017 
" clip-path="url(#p48af7890f1)" style="fill: none; stroke: #000000; stroke-linecap: square"/>
   </g>
   <g id="line2d_132">
    <path d="M 871.506422 296.390918 
L 871.506422 296.390918 
" clip-path="url(#p48af7890f1)" style="fill: none; stroke: #000000; stroke-linecap: square"/>
   </g>
   <g id="line2d_133">
    <path d="M 868.874504 298.583017 
L 874.13834 298.583017 
" clip-path="url(#p48af7890f1)" style="fill: none; stroke: #000000; stroke-linecap: square"/>
   </g>
   <g id="line2d_134">
    <path d="M 868.874504 296.390918 
L 874.13834 296.390918 
" clip-path="url(#p48af7890f1)" style="fill: none; stroke: #000000; stroke-linecap: square"/>
   </g>
   <g id="line2d_135">
    <path d="M 905.345366 285.252882 
L 912.865131 285.252882 
L 912.865131 283.377532 
L 905.345366 283.377532 
L 905.345366 285.252882 
" clip-path="url(#p48af7890f1)" style="fill: none; stroke: #000000; stroke-linecap: square"/>
   </g>
   <g id="line2d_136">
    <path d="M 909.105249 285.252882 
L 909.105249 285.252882 
" clip-path="url(#p48af7890f1)" style="fill: none; stroke: #000000; stroke-linecap: square"/>
   </g>
   <g id="line2d_137">
    <path d="M 909.105249 283.377532 
L 909.105249 283.377532 
" clip-path="url(#p48af7890f1)" style="fill: none; stroke: #000000; stroke-linecap: square"/>
   </g>
   <g id="line2d_138">
    <path d="M 906.473331 285.252882 
L 911.737166 285.252882 
" clip-path="url(#p48af7890f1)" style="fill: none; stroke: #000000; stroke-linecap: square"/>
   </g>
   <g id="line2d_139">
    <path d="M 906.473331 283.377532 
L 911.737166 283.377532 
" clip-path="url(#p48af7890f1)" style="fill: none; stroke: #000000; stroke-linecap: square"/>
   </g>
   <g id="line2d_140">
    <path d="M 942.944192 272.081532 
L 950.463958 272.081532 
L 950.463958 269.624909 
L 942.944192 269.624909 
L 942.944192 272.081532 
" clip-path="url(#p48af7890f1)" style="fill: none; stroke: #000000; stroke-linecap: square"/>
   </g>
   <g id="line2d_141">
    <path d="M 946.704075 272.081532 
L 946.704075 272.081532 
" clip-path="url(#p48af7890f1)" style="fill: none; stroke: #000000; stroke-linecap: square"/>
   </g>
   <g id="line2d_142">
    <path d="M 946.704075 269.624909 
L 946.704075 269.624909 
" clip-path="url(#p48af7890f1)" style="fill: none; stroke: #000000; stroke-linecap: square"/>
   </g>
   <g id="line2d_143">
    <path d="M 944.072157 272.081532 
L 949.335993 272.081532 
" clip-path="url(#p48af7890f1)" style="fill: none; stroke: #000000; stroke-linecap: square"/>
   </g>
   <g id="line2d_144">
    <path d="M 944.072157 269.624909 
L 949.335993 269.624909 
" clip-path="url(#p48af7890f1)" style="fill: none; stroke: #000000; stroke-linecap: square"/>
   </g>
   <g id="line2d_145">
    <path d="M 233.078349 496.911898 
L 239.846137 495.523949 
L 269.925198 487.572423 
L 307.524025 477.353652 
L 345.122851 467.166619 
L 382.721678 455.616205 
L 420.320504 444.764221 
L 457.919331 433.258573 
L 495.518157 421.602942 
L 533.116984 409.518227 
L 570.71581 397.59812 
L 608.314637 385.697922 
L 645.913463 373.197185 
L 683.51229 357.295963 
L 721.111116 345.835047 
L 758.709943 336.198159 
L 796.308769 313.087564 
L 833.907596 309.846913 
L 871.506422 296.512478 
L 909.105249 284.742681 
L 946.704075 270.18898 
L 984.302901 261.073654 
" clip-path="url(#p48af7890f1)" style="fill: none; stroke: #bfbf00; stroke-width: 1.5; stroke-linecap: square"/>
   </g>
   <g id="line2d_146">
    <path d="M 980.543019 260.653533 
L 988.062784 260.653533 
" clip-path="url(#p48af7890f1)" style="fill: none; stroke: #ff7f0e"/>
   </g>
   <g id="line2d_147">
    <path d="M 303.764142 477.474324 
L 311.283908 477.474324 
" clip-path="url(#p48af7890f1)" style="fill: none; stroke: #ff7f0e"/>
   </g>
   <g id="line2d_148">
    <path d="M 236.086255 495.505934 
L 243.60602 495.505934 
" clip-path="url(#p48af7890f1)" style="fill: none; stroke: #ff7f0e"/>
   </g>
   <g id="line2d_149">
    <path d="M 229.318466 496.920755 
L 236.838231 496.920755 
" clip-path="url(#p48af7890f1)" style="fill: none; stroke: #ff7f0e"/>
   </g>
   <g id="line2d_150">
    <path d="M 341.362969 467.194747 
L 348.882734 467.194747 
" clip-path="url(#p48af7890f1)" style="fill: none; stroke: #ff7f0e"/>
   </g>
   <g id="line2d_151">
    <path d="M 378.961795 456.25717 
L 386.481561 456.25717 
" clip-path="url(#p48af7890f1)" style="fill: none; stroke: #ff7f0e"/>
   </g>
   <g id="line2d_152">
    <path d="M 416.560622 445.058762 
L 424.080387 445.058762 
" clip-path="url(#p48af7890f1)" style="fill: none; stroke: #ff7f0e"/>
   </g>
   <g id="line2d_153">
    <path d="M 454.159448 433.399298 
L 461.679213 433.399298 
" clip-path="url(#p48af7890f1)" style="fill: none; stroke: #ff7f0e"/>
   </g>
   <g id="line2d_154">
    <path d="M 491.758275 421.593885 
L 499.27804 421.593885 
" clip-path="url(#p48af7890f1)" style="fill: none; stroke: #ff7f0e"/>
   </g>
   <g id="line2d_155">
    <path d="M 529.357101 410.34753 
L 536.876866 410.34753 
" clip-path="url(#p48af7890f1)" style="fill: none; stroke: #ff7f0e"/>
   </g>
   <g id="line2d_156">
    <path d="M 566.955928 397.498557 
L 574.475693 397.498557 
" clip-path="url(#p48af7890f1)" style="fill: none; stroke: #ff7f0e"/>
   </g>
   <g id="line2d_157">
    <path d="M 604.554754 385.821742 
L 612.074519 385.821742 
" clip-path="url(#p48af7890f1)" style="fill: none; stroke: #ff7f0e"/>
   </g>
   <g id="line2d_158">
    <path d="M 266.165316 487.740069 
L 273.685081 487.740069 
" clip-path="url(#p48af7890f1)" style="fill: none; stroke: #ff7f0e"/>
   </g>
   <g id="line2d_159">
    <path d="M 642.153581 373.420109 
L 649.673346 373.420109 
" clip-path="url(#p48af7890f1)" style="fill: none; stroke: #ff7f0e"/>
   </g>
   <g id="line2d_160">
    <path d="M 679.752407 361.589258 
L 687.272172 361.589258 
" clip-path="url(#p48af7890f1)" style="fill: none; stroke: #ff7f0e"/>
   </g>
   <g id="line2d_161">
    <path d="M 717.351234 348.236791 
L 724.870999 348.236791 
" clip-path="url(#p48af7890f1)" style="fill: none; stroke: #ff7f0e"/>
   </g>
   <g id="line2d_162">
    <path d="M 754.95006 336.264798 
L 762.469825 336.264798 
" clip-path="url(#p48af7890f1)" style="fill: none; stroke: #ff7f0e"/>
   </g>
   <g id="line2d_163">
    <path d="M 792.548886 323.641253 
L 800.068652 323.641253 
" clip-path="url(#p48af7890f1)" style="fill: none; stroke: #ff7f0e"/>
   </g>
   <g id="line2d_164">
    <path d="M 830.147713 312.138991 
L 837.667478 312.138991 
" clip-path="url(#p48af7890f1)" style="fill: none; stroke: #ff7f0e"/>
   </g>
   <g id="line2d_165">
    <path d="M 867.746539 297.93252 
L 875.266305 297.93252 
" clip-path="url(#p48af7890f1)" style="fill: none; stroke: #ff7f0e"/>
   </g>
   <g id="line2d_166">
    <path d="M 905.345366 284.838658 
L 912.865131 284.838658 
" clip-path="url(#p48af7890f1)" style="fill: none; stroke: #ff7f0e"/>
   </g>
   <g id="line2d_167">
    <path d="M 942.944192 271.784184 
L 950.463958 271.784184 
" clip-path="url(#p48af7890f1)" style="fill: none; stroke: #ff7f0e"/>
   </g>
   <g id="patch_3">
    <path d="M 191.38125 515.903573 
L 191.38125 99.158437 
" style="fill: none; stroke: #000000; stroke-width: 0.8; stroke-linejoin: miter; stroke-linecap: square"/>
   </g>
   <g id="patch_4">
    <path d="M 1026 515.903573 
L 1026 99.158437 
" style="fill: none; stroke: #000000; stroke-width: 0.8; stroke-linejoin: miter; stroke-linecap: square"/>
   </g>
   <g id="patch_5">
    <path d="M 191.38125 515.903573 
L 1026 515.903573 
" style="fill: none; stroke: #000000; stroke-width: 0.8; stroke-linejoin: miter; stroke-linecap: square"/>
   </g>
   <g id="patch_6">
    <path d="M 191.38125 99.158437 
L 1026 99.158437 
" style="fill: none; stroke: #000000; stroke-width: 0.8; stroke-linejoin: miter; stroke-linecap: square"/>
   </g>
   <g id="legend_1">
    <g id="patch_7">
     <path d="M 898.273438 122.114687 
L 1019 122.114687 
Q 1021 122.114687 1021 120.114687 
L 1021 106.158437 
Q 1021 104.158437 1019 104.158437 
L 898.273438 104.158437 
Q 896.273438 104.158437 896.273438 106.158437 
L 896.273438 120.114687 
Q 896.273438 122.114687 898.273438 122.114687 
z
" style="fill: #ffffff; opacity: 0.8; stroke: #cccccc; stroke-linejoin: miter"/>
    </g>
    <g id="line2d_168">
     <path d="M 900.273438 112.256875 
L 910.273438 112.256875 
L 920.273438 112.256875 
" style="fill: none; stroke: #bfbf00; stroke-width: 1.5; stroke-linecap: square"/>
     <g>
      <use xlink:href="#m65bea1bace" x="910.273438" y="112.256875" style="fill: #bfbf00; stroke: #bfbf00; stroke-linejoin: miter"/>
     </g>
    </g>
    <g id="text_35">
     <!-- qsort_O2_random -->
     <g transform="translate(928.273438 115.756875) scale(0.1 -0.1)">
      <defs>
       <path id="DejaVuSans-71" d="M 947 1747 
Q 947 1113 1208 752 
Q 1469 391 1925 391 
Q 2381 391 2643 752 
Q 2906 1113 2906 1747 
Q 2906 2381 2643 2742 
Q 2381 3103 1925 3103 
Q 1469 3103 1208 2742 
Q 947 2381 947 1747 
z
M 2906 525 
Q 2725 213 2448 61 
Q 2172 -91 1784 -91 
Q 1150 -91 751 415 
Q 353 922 353 1747 
Q 353 2572 751 3078 
Q 1150 3584 1784 3584 
Q 2172 3584 2448 3432 
Q 2725 3281 2906 2969 
L 2906 3500 
L 3481 3500 
L 3481 -1331 
L 2906 -1331 
L 2906 525 
z
" transform="scale(0.015625)"/>
       <path id="DejaVuSans-73" d="M 2834 3397 
L 2834 2853 
Q 2591 2978 2328 3040 
Q 2066 3103 1784 3103 
Q 1356 3103 1142 2972 
Q 928 2841 928 2578 
Q 928 2378 1081 2264 
Q 1234 2150 1697 2047 
L 1894 2003 
Q 2506 1872 2764 1633 
Q 3022 1394 3022 966 
Q 3022 478 2636 193 
Q 2250 -91 1575 -91 
Q 1294 -91 989 -36 
Q 684 19 347 128 
L 347 722 
Q 666 556 975 473 
Q 1284 391 1588 391 
Q 1994 391 2212 530 
Q 2431 669 2431 922 
Q 2431 1156 2273 1281 
Q 2116 1406 1581 1522 
L 1381 1569 
Q 847 1681 609 1914 
Q 372 2147 372 2553 
Q 372 3047 722 3315 
Q 1072 3584 1716 3584 
Q 2034 3584 2315 3537 
Q 2597 3491 2834 3397 
z
" transform="scale(0.015625)"/>
       <path id="DejaVuSans-6f" d="M 1959 3097 
Q 1497 3097 1228 2736 
Q 959 2375 959 1747 
Q 959 1119 1226 758 
Q 1494 397 1959 397 
Q 2419 397 2687 759 
Q 2956 1122 2956 1747 
Q 2956 2369 2687 2733 
Q 2419 3097 1959 3097 
z
M 1959 3584 
Q 2709 3584 3137 3096 
Q 3566 2609 3566 1747 
Q 3566 888 3137 398 
Q 2709 -91 1959 -91 
Q 1206 -91 779 398 
Q 353 888 353 1747 
Q 353 2609 779 3096 
Q 1206 3584 1959 3584 
z
" transform="scale(0.015625)"/>
       <path id="DejaVuSans-72" d="M 2631 2963 
Q 2534 3019 2420 3045 
Q 2306 3072 2169 3072 
Q 1681 3072 1420 2755 
Q 1159 2438 1159 1844 
L 1159 0 
L 581 0 
L 581 3500 
L 1159 3500 
L 1159 2956 
Q 1341 3275 1631 3429 
Q 1922 3584 2338 3584 
Q 2397 3584 2469 3576 
Q 2541 3569 2628 3553 
L 2631 2963 
z
" transform="scale(0.015625)"/>
       <path id="DejaVuSans-74" d="M 1172 4494 
L 1172 3500 
L 2356 3500 
L 2356 3053 
L 1172 3053 
L 1172 1153 
Q 1172 725 1289 603 
Q 1406 481 1766 481 
L 2356 481 
L 2356 0 
L 1766 0 
Q 1100 0 847 248 
Q 594 497 594 1153 
L 594 3053 
L 172 3053 
L 172 3500 
L 594 3500 
L 594 4494 
L 1172 4494 
z
" transform="scale(0.015625)"/>
       <path id="DejaVuSans-5f" d="M 3263 -1063 
L 3263 -1509 
L -63 -1509 
L -63 -1063 
L 3263 -1063 
z
" transform="scale(0.015625)"/>
       <path id="DejaVuSans-4f" d="M 2522 4238 
Q 1834 4238 1429 3725 
Q 1025 3213 1025 2328 
Q 1025 1447 1429 934 
Q 1834 422 2522 422 
Q 3209 422 3611 934 
Q 4013 1447 4013 2328 
Q 4013 3213 3611 3725 
Q 3209 4238 2522 4238 
z
M 2522 4750 
Q 3503 4750 4090 4092 
Q 4678 3434 4678 2328 
Q 4678 1225 4090 567 
Q 3503 -91 2522 -91 
Q 1538 -91 948 565 
Q 359 1222 359 2328 
Q 359 3434 948 4092 
Q 1538 4750 2522 4750 
z
" transform="scale(0.015625)"/>
       <path id="DejaVuSans-61" d="M 2194 1759 
Q 1497 1759 1228 1600 
Q 959 1441 959 1056 
Q 959 750 1161 570 
Q 1363 391 1709 391 
Q 2188 391 2477 730 
Q 2766 1069 2766 1631 
L 2766 1759 
L 2194 1759 
z
M 3341 1997 
L 3341 0 
L 2766 0 
L 2766 531 
Q 2569 213 2275 61 
Q 1981 -91 1556 -91 
Q 1019 -91 701 211 
Q 384 513 384 1019 
Q 384 1609 779 1909 
Q 1175 2209 1959 2209 
L 2766 2209 
L 2766 2266 
Q 2766 2663 2505 2880 
Q 2244 3097 1772 3097 
Q 1472 3097 1187 3025 
Q 903 2953 641 2809 
L 641 3341 
Q 956 3463 1253 3523 
Q 1550 3584 1831 3584 
Q 2591 3584 2966 3190 
Q 3341 2797 3341 1997 
z
" transform="scale(0.015625)"/>
       <path id="DejaVuSans-6e" d="M 3513 2113 
L 3513 0 
L 2938 0 
L 2938 2094 
Q 2938 2591 2744 2837 
Q 2550 3084 2163 3084 
Q 1697 3084 1428 2787 
Q 1159 2491 1159 1978 
L 1159 0 
L 581 0 
L 581 3500 
L 1159 3500 
L 1159 2956 
Q 1366 3272 1645 3428 
Q 1925 3584 2291 3584 
Q 2894 3584 3203 3211 
Q 3513 2838 3513 2113 
z
" transform="scale(0.015625)"/>
       <path id="DejaVuSans-64" d="M 2906 2969 
L 2906 4863 
L 3481 4863 
L 3481 0 
L 2906 0 
L 2906 525 
Q 2725 213 2448 61 
Q 2172 -91 1784 -91 
Q 1150 -91 751 415 
Q 353 922 353 1747 
Q 353 2572 751 3078 
Q 1150 3584 1784 3584 
Q 2172 3584 2448 3432 
Q 2725 3281 2906 2969 
z
M 947 1747 
Q 947 1113 1208 752 
Q 1469 391 1925 391 
Q 2381 391 2643 752 
Q 2906 1113 2906 1747 
Q 2906 2381 2643 2742 
Q 2381 3103 1925 3103 
Q 1469 3103 1208 2742 
Q 947 2381 947 1747 
z
" transform="scale(0.015625)"/>
       <path id="DejaVuSans-6d" d="M 3328 2828 
Q 3544 3216 3844 3400 
Q 4144 3584 4550 3584 
Q 5097 3584 5394 3201 
Q 5691 2819 5691 2113 
L 5691 0 
L 5113 0 
L 5113 2094 
Q 5113 2597 4934 2840 
Q 4756 3084 4391 3084 
Q 3944 3084 3684 2787 
Q 3425 2491 3425 1978 
L 3425 0 
L 2847 0 
L 2847 2094 
Q 2847 2600 2669 2842 
Q 2491 3084 2119 3084 
Q 1678 3084 1418 2786 
Q 1159 2488 1159 1978 
L 1159 0 
L 581 0 
L 581 3500 
L 1159 3500 
L 1159 2956 
Q 1356 3278 1631 3431 
Q 1906 3584 2284 3584 
Q 2666 3584 2933 3390 
Q 3200 3197 3328 2828 
z
" transform="scale(0.015625)"/>
      </defs>
      <use xlink:href="#DejaVuSans-71"/>
      <use xlink:href="#DejaVuSans-73" x="63.476562"/>
      <use xlink:href="#DejaVuSans-6f" x="115.576172"/>
      <use xlink:href="#DejaVuSans-72" x="176.757812"/>
      <use xlink:href="#DejaVuSans-74" x="217.871094"/>
      <use xlink:href="#DejaVuSans-5f" x="257.080078"/>
      <use xlink:href="#DejaVuSans-4f" x="307.080078"/>
      <use xlink:href="#DejaVuSans-32" x="385.791016"/>
      <use xlink:href="#DejaVuSans-5f" x="449.414062"/>
      <use xlink:href="#DejaVuSans-72" x="499.414062"/>
      <use xlink:href="#DejaVuSans-61" x="540.527344"/>
      <use xlink:href="#DejaVuSans-6e" x="601.806641"/>
      <use xlink:href="#DejaVuSans-64" x="665.185547"/>
      <use xlink:href="#DejaVuSans-6f" x="728.662109"/>
      <use xlink:href="#DejaVuSans-6d" x="789.84375"/>
     </g>
    </g>
   </g>
  </g>
 </g>
 <defs>
  <clipPath id="p48af7890f1">
   <rect x="191.38125" y="99.158437" width="834.61875" height="416.745135"/>
  </clipPath>
 </defs>
</svg>
